<svg xmlns="http://www.w3.org/2000/svg" xmlns:xlink="http://www.w3.org/1999/xlink" width="823.573" height="630.972" viewBox="0 0 823.573 630.972">
  <defs>
    <linearGradient id="linear-gradient" x1="0.5" y1="1" x2="0.5" gradientUnits="objectBoundingBox">
      <stop offset="0" stop-color="gray" stop-opacity="0.251"/>
      <stop offset="0.54" stop-color="gray" stop-opacity="0.122"/>
      <stop offset="1" stop-color="gray" stop-opacity="0.102"/>
    </linearGradient>
    <linearGradient id="linear-gradient-2" x1="3.193" x2="3.193" y2="0" xlink:href="#linear-gradient"/>
  </defs>
  <g id="Groupe_23" data-name="Groupe 23" transform="translate(0.003 0.004)">
    <ellipse id="Ellipse_27" data-name="Ellipse 27" cx="83.43" cy="20.857" rx="83.43" ry="20.857" transform="translate(528.726 576.543)" fill="#6c63ff" opacity="0.1"/>
    <path id="Tracé_330" data-name="Tracé 330" d="M53.845,447.745c-9.438,3.235-20.893,9.834-18.963,20.324.965,5.317,5.274,9.258,9.366,12.586a265.349,265.349,0,0,0,57.176,35.411c9.777,4.438,20.173,8.509,27.558,16.693s10.807,19.625,13.206,30.656a249.18,249.18,0,0,1,4.121,79.546c29.474.562,62.111-.1,82.969-21.333,12.486-12.716,19.179-31.578,33.862-41.419,9.791-6.563,21.859-8.192,33.516-9.561q82.76-9.676,166.377-11.715c23.357-.569,47.226-.771,69.035-8.912s41.607-25.937,46.038-50.065c.684-3.718,1.131-7.817,3.674-10.411,2.269-2.327,5.67-2.882,8.847-3.293l191.564-25.937c10.49-1.441,21.347-2.976,30.18-8.9,8.545-5.764,14.308-14.971,19.82-23.948,12.63-20.548,25.735-45.389,16.988-68.884-7-18.775-25.8-29.589-43.768-36.3s-37.313-11.434-51.917-24.6c-22.219-20.029-27.147-53.278-33.408-83.113a486.615,486.615,0,0,0-23.775-79.172c-8.963-22.579-19.878-44.834-36.146-62.407s-38.653-30.029-61.434-29.136C568.977,45.034,542.8,68.226,513,65.344c-25.173-2.414-45.656-22.587-68.322-35.137-40.238-22.3-87.731-20.339-131.759-13.386-46.686,7.356-93.66,20.231-131.485,49.186-8.646,6.628-16.917,14.28-22,24.251-7.781,15.3-7.111,33.934-11.009,50.93-15.706,68.444-99.914,97-117.227,164.943-6.153,24.121-1.6,50.281,9.69,72.572,12.14,24,36.528,34.229,49.028,54.827C81.562,441.16,64.912,443.948,53.845,447.745Z" transform="translate(-28.45 -12.11)" fill="#6c63ff" opacity="0.1"/>
    <path id="Tracé_331" data-name="Tracé 331" d="M898.132,787.3s-7.55-52.018,15.13-86.254A79.612,79.612,0,0,0,926.72,652.5a133.587,133.587,0,0,0-3.674-24.215" transform="translate(-271.221 -184.355)" fill="none" stroke="#535461" stroke-miterlimit="10" stroke-width="2"/>
    <path id="Tracé_332" data-name="Tracé 332" d="M944.3,593.242c-.872,6.117-14.489,22.27-14.489,22.27s-8.509-19.33-7.659-25.447a11.188,11.188,0,1,1,22.149,3.177Z" transform="translate(-278.257 -170.986)" fill="#6c63ff"/>
    <path id="Tracé_333" data-name="Tracé 333" d="M962.182,641.673c-4.063,4.654-24.272,10.807-24.272,10.807s3.343-20.893,7.4-25.519a11.191,11.191,0,0,1,16.873,14.7Z" transform="translate(-282.678 -182.911)" fill="#6c63ff"/>
    <path id="Tracé_334" data-name="Tracé 334" d="M948.752,720.694c-5.857,1.974-26.412-2.882-26.412-2.882s13.415-16.326,19.272-18.293a11.189,11.189,0,0,1,7.14,21.174Z" transform="translate(-278.325 -204.151)" fill="#6c63ff"/>
    <path id="Tracé_335" data-name="Tracé 335" d="M925.47,779.447c-5.439,2.932-26.52,1.585-26.52,1.585s10.461-18.35,15.9-21.283a11.189,11.189,0,0,1,10.62,19.7Z" transform="translate(-271.787 -220.728)" fill="#6c63ff"/>
    <path id="Tracé_336" data-name="Tracé 336" d="M904.493,653.9c3.775,4.892,23.588,12.248,23.588,12.248s-2.1-21.023-5.879-25.937A11.191,11.191,0,1,0,904.493,653.9Z" transform="translate(-272.683 -186.473)" fill="#6c63ff"/>
    <path id="Tracé_337" data-name="Tracé 337" d="M877.262,721.8c5.043,3.537,26.16,4.618,26.16,4.618s-8.285-19.453-13.357-22.968a11.188,11.188,0,1,0-12.8,18.351Z" transform="translate(-264.386 -204.802)" fill="#6c63ff"/>
    <path id="Tracé_338" data-name="Tracé 338" d="M861.459,792.656c4.395,4.323,25.007,8.97,25.007,8.97s-4.885-20.555-9.287-24.878a11.188,11.188,0,1,0-15.721,15.923Z" transform="translate(-260.376 -224.952)" fill="#6c63ff"/>
    <path id="Tracé_339" data-name="Tracé 339" d="M944.3,593.242c-.872,6.117-14.489,22.27-14.489,22.27s-8.509-19.33-7.659-25.447a11.188,11.188,0,1,1,22.149,3.177Z" transform="translate(-278.257 -170.986)" opacity="0.25"/>
    <path id="Tracé_340" data-name="Tracé 340" d="M962.182,641.673c-4.063,4.654-24.272,10.807-24.272,10.807s3.343-20.893,7.4-25.519a11.191,11.191,0,0,1,16.873,14.7Z" transform="translate(-282.678 -182.911)" opacity="0.25"/>
    <path id="Tracé_341" data-name="Tracé 341" d="M948.752,720.694c-5.857,1.974-26.412-2.882-26.412-2.882s13.415-16.326,19.272-18.293a11.189,11.189,0,0,1,7.14,21.174Z" transform="translate(-278.325 -204.151)" opacity="0.25"/>
    <path id="Tracé_342" data-name="Tracé 342" d="M925.47,779.447c-5.439,2.932-26.52,1.585-26.52,1.585s10.461-18.35,15.9-21.283a11.189,11.189,0,0,1,10.62,19.7Z" transform="translate(-271.787 -220.728)" opacity="0.25"/>
    <path id="Tracé_343" data-name="Tracé 343" d="M904.493,653.9c3.775,4.892,23.588,12.248,23.588,12.248s-2.1-21.023-5.879-25.937A11.191,11.191,0,1,0,904.493,653.9Z" transform="translate(-272.683 -186.473)" opacity="0.25"/>
    <path id="Tracé_344" data-name="Tracé 344" d="M877.262,721.8c5.043,3.537,26.16,4.618,26.16,4.618s-8.285-19.453-13.357-22.968a11.188,11.188,0,1,0-12.8,18.351Z" transform="translate(-264.386 -204.802)" opacity="0.25"/>
    <path id="Tracé_345" data-name="Tracé 345" d="M861.459,792.656c4.395,4.323,25.007,8.97,25.007,8.97s-4.885-20.555-9.287-24.878a11.188,11.188,0,1,0-15.721,15.923Z" transform="translate(-260.376 -224.952)" opacity="0.25"/>
    <path id="Tracé_346" data-name="Tracé 346" d="M883.317,786.383s-27.983-44.5-21.088-85.015a79.611,79.611,0,0,0-7.342-49.82A133.633,133.633,0,0,0,841.71,630.9" transform="translate(-255.786 -185.085)" fill="none" stroke="#535461" stroke-miterlimit="10" stroke-width="2"/>
    <path id="Tracé_347" data-name="Tracé 347" d="M839,592.258c1.671,5.951-4.229,26.232-4.229,26.232s-15.634-14.208-17.291-20.173a11.192,11.192,0,0,1,21.542-6.081Z" transform="translate(-248.893 -171.998)" fill="#6c63ff"/>
    <path id="Tracé_348" data-name="Tracé 348" d="M876.662,628.565c-1.823,5.9-17.8,19.719-17.8,19.719s-5.4-20.418-3.6-26.326a11.19,11.19,0,0,1,21.383,6.607Z" transform="translate(-259.47 -180.38)" fill="#6c63ff"/>
    <path id="Tracé_349" data-name="Tracé 349" d="M896.244,705.1c-4.553,4.172-25.324,8.033-25.324,8.033s5.648-20.353,10.2-24.5a11.193,11.193,0,1,1,15.13,16.5Z" transform="translate(-263.951 -200.402)" fill="#6c63ff"/>
    <path id="Tracé_350" data-name="Tracé 350" d="M899.412,768.453c-3.782,4.885-23.6,12.2-23.6,12.2s2.161-21.016,5.908-25.937A11.189,11.189,0,1,1,899.412,768.4Z" transform="translate(-265.318 -218.423)" fill="#6c63ff"/>
    <path id="Tracé_351" data-name="Tracé 351" d="M827.2,663.841c5.432,2.947,26.513,1.628,26.513,1.628s-10.432-18.365-15.85-21.3A11.19,11.19,0,0,0,827.2,663.841Z" transform="translate(-250.091 -188.414)" fill="#6c63ff"/>
    <path id="Tracé_352" data-name="Tracé 352" d="M829.708,736.939c6.066,1.182,25.793-6.376,25.793-6.376s-15.454-14.409-21.52-15.584a11.189,11.189,0,1,0-4.272,21.96Z" transform="translate(-249.829 -208.516)" fill="#6c63ff"/>
    <path id="Tracé_353" data-name="Tracé 353" d="M844.281,808.212c5.764,2.161,26.5-1.938,26.5-1.938s-12.8-16.8-18.574-18.991a11.189,11.189,0,0,0-7.925,20.893Z" transform="translate(-254.64 -228.65)" fill="#6c63ff"/>
    <path id="Tracé_354" data-name="Tracé 354" d="M285.63,57.83V566.089H651.194V57.83Z" transform="translate(-79.845 -16.167)" fill="url(#linear-gradient)"/>
    <rect id="Rectangle_100" data-name="Rectangle 100" width="359.151" height="19.373" transform="translate(208.991 46.123)" fill="#f6f7f9"/>
    <g id="Groupe_17" data-name="Groupe 17" transform="translate(208.991 46.123)" opacity="0.2">
      <rect id="Rectangle_101" data-name="Rectangle 101" width="359.151" height="19.373" fill="#6c63ff"/>
    </g>
    <rect id="Rectangle_102" data-name="Rectangle 102" width="359.151" height="479.966" transform="translate(208.991 65.496)" fill="#f6f7f9"/>
    <circle id="Ellipse_28" data-name="Ellipse 28" cx="3.285" cy="3.285" r="3.285" transform="translate(215.151 52.528)" fill="#f6f7f9"/>
    <circle id="Ellipse_29" data-name="Ellipse 29" cx="3.285" cy="3.285" r="3.285" transform="translate(224.056 52.528)" fill="#f6f7f9"/>
    <circle id="Ellipse_30" data-name="Ellipse 30" cx="3.285" cy="3.285" r="3.285" transform="translate(232.961 52.528)" fill="#f6f7f9"/>
    <g id="Groupe_18" data-name="Groupe 18" transform="translate(273.091 95.086)" opacity="0.2">
      <rect id="Rectangle_103" data-name="Rectangle 103" width="230.945" height="9.042" fill="#6c63ff"/>
    </g>
    <rect id="Rectangle_104" data-name="Rectangle 104" width="30.685" height="9.042" transform="translate(473.351 95.086)" fill="#6c63ff"/>
    <g id="Groupe_19" data-name="Groupe 19" transform="translate(243.235 146.592)" opacity="0.2">
      <rect id="Rectangle_105" data-name="Rectangle 105" width="290.664" height="104.1" fill="#6c63ff"/>
    </g>
    <rect id="Rectangle_106" data-name="Rectangle 106" width="167.659" height="9.042" transform="translate(324.806 184.532)" fill="#f6f7f9"/>
    <rect id="Rectangle_107" data-name="Rectangle 107" width="86.982" height="9.042" transform="translate(324.806 203.71)" fill="#f6f7f9"/>
    <rect id="Rectangle_108" data-name="Rectangle 108" width="30.685" height="9.042" transform="translate(473.351 231.102)" fill="#6c63ff"/>
    <circle id="Ellipse_31" data-name="Ellipse 31" cx="16.434" cy="16.434" r="16.434" transform="translate(261.866 182.204)" fill="#f6f7f9"/>
    <g id="Groupe_20" data-name="Groupe 20" transform="translate(243.235 279.871)" opacity="0.2">
      <rect id="Rectangle_109" data-name="Rectangle 109" width="290.664" height="104.1" fill="#6c63ff"/>
    </g>
    <rect id="Rectangle_110" data-name="Rectangle 110" width="167.659" height="9.042" transform="translate(324.806 317.81)" fill="#f6f7f9"/>
    <rect id="Rectangle_111" data-name="Rectangle 111" width="86.982" height="9.042" transform="translate(324.806 336.989)" fill="#f6f7f9"/>
    <rect id="Rectangle_112" data-name="Rectangle 112" width="30.685" height="9.042" transform="translate(473.351 364.381)" fill="#6c63ff"/>
    <circle id="Ellipse_32" data-name="Ellipse 32" cx="16.434" cy="16.434" r="16.434" transform="translate(261.866 315.483)" fill="#f6f7f9"/>
    <g id="Groupe_21" data-name="Groupe 21" transform="translate(243.235 413.149)" opacity="0.2">
      <rect id="Rectangle_113" data-name="Rectangle 113" width="290.664" height="104.1" fill="#6c63ff"/>
    </g>
    <rect id="Rectangle_114" data-name="Rectangle 114" width="167.659" height="9.042" transform="translate(324.806 451.089)" fill="#f6f7f9"/>
    <rect id="Rectangle_115" data-name="Rectangle 115" width="86.982" height="9.042" transform="translate(324.806 470.268)" fill="#f6f7f9"/>
    <rect id="Rectangle_116" data-name="Rectangle 116" width="30.685" height="9.042" transform="translate(473.351 497.66)" fill="#6c63ff"/>
    <circle id="Ellipse_33" data-name="Ellipse 33" cx="16.434" cy="16.434" r="16.434" transform="translate(261.866 448.762)" fill="#f6f7f9"/>
    <path id="Tracé_355" data-name="Tracé 355" d="M188.242,391.4c-2.788,12.687-7.817,28.321-7.817,28.321,4.971,5.8,26.657,6.837,26.657,6.837l.036-.043h.339c.151.8.324,1.571.533,2.305q-.058,1.088-.108,2.2a6.016,6.016,0,0,0-.31,2.709,6.136,6.136,0,0,0,.158.605c-.519,11.484-.886,23.732-.569,30.807a29.646,29.646,0,0,0,.612,5.965,21.478,21.478,0,0,1,.634,4.575c.353,10.353-2.161,27.745-2.161,27.745s.065.238.1.36c-.043.3-.072.468-.072.468a8.206,8.206,0,0,1,.367,2.161c.187,8.732-4.82,27.731-4.82,27.731s-4.049,29.215-3.473,40.346a25.665,25.665,0,0,0,.195,2.659c1.239,9.258,2.882,35.108,2.882,35.108a11.6,11.6,0,0,0,.944,1.218c-.144.576-.317,1.16-.5,1.736a48.7,48.7,0,0,0-2.414,18.1c.05.721.108,1.506.18,2.3.829,9.539,23.905,3.6,25.425,2.493.519-.382.151-3.84-.562-8.228l23.775,5.872s16.859,2.493,24.878,0,7.738-9.366-3.732-10.5c-8.033-.778-14.409-8.257-17.558-12.673,1.218-3.321,10.346-28.53,12.025-44.136a220.944,220.944,0,0,1,5.324-29.914L271,515.308l3.184-13.689,3.8-18.1c4.287-13.271,5.6-35.454,5.6-35.454l3.314-21.765a42.135,42.135,0,0,0,.771-7.176,80.448,80.448,0,0,1,9.186,2.457c5.187-4.035-2.161-42.911-2.161-42.911s-3.537-24.553-6.535-46.938a45.872,45.872,0,0,1,14.308.584l43.538.958a22.127,22.127,0,0,0,2.334-3.8H350.2a4,4,0,0,0,.54-1.052l.771.144a64.388,64.388,0,0,1,8.329,2.529s13.732,1.657,11.657-12.745c-1.542-10.735-13.761-6.837-19.87-4.172l-.771.353c-.058-.4-.094-.634-.094-.634l-1.967.36a9.506,9.506,0,0,0-.411-.879s-21.355-.829-38.667-3.422c-12.313-1.844-21.614-8.883-25.987-12.788-3.033-15.4-11.844-20.072-11.844-20.072a26.366,26.366,0,0,1-12.01-4.063,25.386,25.386,0,0,1-2.81-1.945l-.475.274-.058-.05c2.932-2.723,5.973-5.223,8.646-7.32l1.2-.929a26.708,26.708,0,0,0,21.816-37.4c-.115-.259-.252-.519-.375-.771a5.994,5.994,0,0,0,5.288-5.209c.267-3.019-1.816-6.232-.454-8.941a8.689,8.689,0,0,0,.648-1.261,3.408,3.408,0,0,0,.1-1.268,8.927,8.927,0,0,0-3.6-6.484c-3.091-2.241-5.836-1.1-9.215-1.3a111.247,111.247,0,0,1-11.621-1.8c-4.416-.72-8.941-1.21-13.35-.439s-8.725,2.932-11.282,6.607c-1.1,1.571-1.837,3.365-2.882,4.986-1.174,1.873-2.695,3.494-4.042,5.238-2.269,2.932-4.107,6.448-3.927,10.151.1,2.1.843,4.114.987,6.21a37.82,37.82,0,0,1-.432,5.836,25.548,25.548,0,0,0,.425,7.442,4.611,4.611,0,0,0,.85,2.118,4.517,4.517,0,0,0,1.873,1.2,16.739,16.739,0,0,0,2.3.72,32.918,32.918,0,0,1-3.22,5.8l-1.167-1.21-3.156,4.928-.122-.331c-.151.31-.324.605-.5.9l-.324-.9a18.944,18.944,0,0,1-7.068,7.075c-8.257,5.187-19.777,7.334-19.777,7.334-18.559,2.695-15.13,21.866-15.13,21.866s-7.875,34.208-10.087,55.353,6.009,34.618,6.009,34.618Zm88.509-62.522c.72,2.356,1.354,4.589,1.895,6.542l-.346.137c-.4-1.808-.937-4.128-1.527-6.679Zm-20.418-57.4-.1.065.094-.094Zm-32.01,357.444c-.908-5.425-2.262-11.974-3.1-15.886.591-1.924,1.376-4.863,2.3-9.236,2.075-9.805,3.314-44.5,3.314-44.5l4.842-29.15c4.424-11.2,5.389-24.5,5.389-24.5,1.78-4.7,5.893-33.451,6.549-38.069-.187,3.192-.634,11.275-.872,20.252v.245c-.18,6.78-.231,14.049,0,20.079h0c.065,1.693.151,3.3.267,4.784.036.382.058.778.072,1.167.519,15.634-6.484,35.3-6.484,35.3s-3.12,14.582-2.659,22.731a15,15,0,0,0,.62,4.323,7.644,7.644,0,0,1,.353,2c.13,7.8-4.474,24.157-5.648,28.17C226.7,611.922,224.791,625.4,224.323,628.918Z" transform="translate(-70.411 -64.017)" fill="url(#linear-gradient-2)"/>
    <path id="Tracé_356" data-name="Tracé 356" d="M267.9,764.84s8.084,14.654,19.453,15.749,11.643,7.925,3.7,10.411-24.654,0-24.654,0l-23.833-5.886s2.882-23.559,6.708-24.791S267.9,764.84,267.9,764.84Z" transform="translate(-88.302 -221.215)" fill="#4c4c78"/>
    <path id="Tracé_357" data-name="Tracé 357" d="M229.294,766.344s6.03,27.118,4.525,28.221-24.381,6.981-25.216-2.471c-.072-.785-.13-1.549-.173-2.277a48.012,48.012,0,0,1,2.392-17.94,14.863,14.863,0,0,0,.929-5.533C211.355,762.54,229.294,766.344,229.294,766.344Z" transform="translate(-78.74 -222.474)" fill="#4c4c78"/>
    <path id="Tracé_358" data-name="Tracé 358" d="M247.79,277.7s18.487,45.389,15.2,30.836c-2.161-9.669,11.895-22.5,21.614-30.043,4.95-3.847,8.782-6.318,8.782-6.318s-34.726-40.476-32.262-23.012a26.3,26.3,0,0,1-1.895,14.092A36.945,36.945,0,0,1,247.79,277.7Z" transform="translate(-89.764 -77.153)" fill="#ffb9b9"/>
    <path id="Tracé_359" data-name="Tracé 359" d="M411.77,373.438A10.626,10.626,0,0,1,416,373.7a62.406,62.406,0,0,1,8.249,2.507s13.617,1.643,11.527-12.63c-1.527-10.648-13.631-6.787-19.69-4.135-2.061.9-3.429,1.664-3.429,1.664Z" transform="translate(-135.603 -108.388)" fill="#ffb9b9"/>
    <path id="Tracé_360" data-name="Tracé 360" d="M411.77,374.571a10.626,10.626,0,0,1,4.229.267c1.477-3.739.353-12.594.115-14.258-2.061.9-3.429,1.664-3.429,1.664Z" transform="translate(-135.603 -109.521)" opacity="0.1"/>
    <path id="Tracé_361" data-name="Tracé 361" d="M411.245,360.876l3.559-.656s1.83,12.248-.555,15.447h-4.1Z" transform="translate(-135.15 -109.42)" fill="#cbcdda"/>
    <path id="Tracé_362" data-name="Tracé 362" d="M311.391,391.175s10.893-6.484,12.19,1.707,3.019,22.262,3.019,22.262l3.012,17.875,3.9,35.822-.548,6.1s-11.578-3.876-14.316-2.536-4.935-15.029-4.935-15.029L309.2,440.383l-.72-36.023Z" transform="translate(-106.729 -117.392)" fill="#4c4c78"/>
    <path id="Tracé_363" data-name="Tracé 363" d="M311.391,391.175s10.893-6.484,12.19,1.707,3.019,22.262,3.019,22.262l3.012,17.875,3.9,35.822-.548,6.1s-11.578-3.876-14.316-2.536-4.935-15.029-4.935-15.029L309.2,440.383l-.72-36.023Z" transform="translate(-106.729 -117.392)" opacity="0.1"/>
    <path id="Tracé_364" data-name="Tracé 364" d="M320.65,333.56s11.3,12.738,28.458,15.31,38.322,3.386,38.322,3.386,5.339,9.553-2.363,19.726l-43.149-.951s-9.553-2.075-16.953,0Z" transform="translate(-110.131 -101.968)" fill="#4c4c78"/>
    <path id="Tracé_365" data-name="Tracé 365" d="M320.65,333.56s11.3,12.738,28.458,15.31,38.322,3.386,38.322,3.386,5.339,9.553-2.363,19.726l-43.149-.951s-9.553-2.075-16.953,0Z" transform="translate(-110.131 -101.968)" opacity="0.05"/>
    <path id="Tracé_366" data-name="Tracé 366" d="M450.84,406.14" transform="translate(-146.524 -122.256)" fill="none" stroke="blue" stroke-miterlimit="10" stroke-width="1"/>
    <path id="Tracé_367" data-name="Tracé 367" d="M266.207,262.87c4.215,9.013,11.527,15.663,22.161,15.663h1.383c4.95-3.847,8.782-6.318,8.782-6.318s-34.726-40.476-32.262-23.012C267.028,254.513,267.9,258.857,266.207,262.87Z" transform="translate(-94.896 -77.164)" opacity="0.1"/>
    <path id="Tracé_368" data-name="Tracé 368" d="M260.25,243.463a26.412,26.412,0,1,0,7.741-18.732A26.47,26.47,0,0,0,260.25,243.463Z" transform="translate(-93.247 -69.385)" fill="#ffb9b9"/>
    <path id="Tracé_369" data-name="Tracé 369" d="M237.8,425.766s59.035,5.209,61.239-2.327-6.023-27.94-6.023-27.94L295.653,367l.1-1.1s-7.378-30.821-7.133-33.257c.252-2.212-11.909-28.1-14.409-33.365l-.454-.951-.468.274-.2.122-2.882,1.686-11.434-2.695-13.761-7.2-1.3,78.819Z" transform="translate(-86.972 -89.937)" fill="#cbcdda"/>
    <path id="Tracé_370" data-name="Tracé 370" d="M279.409,302.608a4.705,4.705,0,0,1,5.62,2.947,41.545,41.545,0,0,0,2.161,5.043l1.578,9.366,2.882,14.791,2.118,65.562-.951,11.672-5.274-9.366-.958-61.239v-7.637a55.267,55.267,0,0,0-4.395-19.136l-.72-1.722L276.88,307Z" transform="translate(-97.896 -93.278)" opacity="0.1"/>
    <path id="Tracé_371" data-name="Tracé 371" d="M280.543,301.468a4.705,4.705,0,0,1,5.62,2.947,41.542,41.542,0,0,0,2.161,5.043l1.578,9.366,2.882,14.791,2.125,65.562-.965,11.643-5.274-9.366-.958-61.239v-7.637a55.26,55.26,0,0,0-4.388-19.136l-.72-1.722-4.6-5.865Z" transform="translate(-98.209 -92.959)" fill="#4c4c78"/>
    <path id="Tracé_372" data-name="Tracé 372" d="M255.453,278s13.97,14.8,18.9,16.571c0,0-2.464,11.232-4.928,13.422,0,0-14.661-14.95-17.291-16.16l-2.161-5.324Z" transform="translate(-90.374 -86.437)" opacity="0.1"/>
    <path id="Tracé_373" data-name="Tracé 373" d="M255.453,276.9s13.97,14.8,18.9,16.571c0,0-2.464,11.232-4.928,13.422,0,0-14.661-14.95-17.291-16.16l-2.161-5.324Z" transform="translate(-90.374 -86.129)" fill="#cbcdda"/>
    <path id="Tracé_374" data-name="Tracé 374" d="M286.58,301.35l.144.382,4.481,12,8,22.666s.079.231.216.663c1.326,4.121,8.458,26.491,9.863,33l.1-1.1s-7.37-30.85-7.125-33.285c.252-2.212-11.909-28.1-14.409-33.365-.4-.274-.72-.5-.922-.677Z" transform="translate(-100.607 -92.964)" opacity="0.1"/>
    <path id="Tracé_375" data-name="Tracé 375" d="M287.71,301.33l4.625,12.4,8,22.666s.079.231.216.663c1.4,4.395,9.409,29.467,10.087,34.056.72,5.043,10.807,32.262,10.807,32.262l5.764,47.154c5.137-4.006-2.161-42.507-2.161-42.507s-8.22-57.118-10.166-76.117S302.4,307.288,302.4,307.288a26.157,26.157,0,0,1-11.9-4.027,25.416,25.416,0,0,1-2.788-1.931Z" transform="translate(-100.923 -92.958)" fill="#4c4c78"/>
    <path id="Tracé_376" data-name="Tracé 376" d="M207.117,649.815c1.232,9.179,2.882,34.8,2.882,34.8,5.764,8.646,18.494,3.97,18.494,3.97s1.362-2.608,3.415-12.334,3.293-44.107,3.293-44.107l4.8-28.9c4.38-11.1,5.339-24.244,5.339-24.244,1.916-5.043,6.578-38.357,6.578-38.357s-1.924,29.863-.72,45.613-6.3,36.989-6.3,36.989-4.251,19.863-2.053,26.023-5.483,31.643-5.483,31.643c.684,7.4,22.464,4.38,22.464,4.38s10.274-27.529,12.053-44.107a218.918,218.918,0,0,1,5.281-29.654l1.772-23.012,3.156-13.559,3.768-17.94c4.244-13.156,5.548-35.137,5.548-35.137l3.285-21.571c2.161-10.67-.627-23.177-2.5-29.748-.807-2.831-1.441-4.568-1.441-4.568-1.888,1.34-12.695,2.882-18.285,4.186a31.815,31.815,0,0,1-9.366.72,208.093,208.093,0,0,1-41.715-7.63l-1.441-.432-.288,2.464-.677,5.879-1.2,10.425s-3.7,55.613-1.513,63.149-1.506,32.846-1.506,32.846c2.053,6.009-4.38,30.432-4.38,30.432S205.885,640.643,207.117,649.815Z" transform="translate(-78.335 -138.106)" opacity="0.1"/>
    <path id="Tracé_377" data-name="Tracé 377" d="M207.117,648.675c1.232,9.179,2.882,34.8,2.882,34.8,5.764,8.646,18.494,3.97,18.494,3.97s1.362-2.608,3.415-12.334S235.2,631,235.2,631l4.8-28.9c4.38-11.1,5.339-24.244,5.339-24.244,1.916-5.043,6.578-38.357,6.578-38.357s-1.924,29.863-.72,45.613-6.3,36.989-6.3,36.989-4.251,19.863-2.053,26.023-5.483,31.643-5.483,31.643c.684,7.4,22.464,4.38,22.464,4.38s10.274-27.529,12.053-44.107a218.915,218.915,0,0,1,5.281-29.654l1.772-23.012,3.156-13.559,3.768-17.94c4.244-13.156,5.548-35.137,5.548-35.137l3.285-21.578c2.161-10.663-.627-23.17-2.5-29.741-.807-2.831-1.441-4.568-1.441-4.568-1.888,1.34-12.695,2.882-18.285,4.186a31.814,31.814,0,0,1-9.366.72,208.093,208.093,0,0,1-41.715-7.63l-1.441-.432-.288,2.464-.677,5.879-1.2,10.425s-3.7,55.613-1.513,63.149-1.484,32.853-1.484,32.853c2.053,6.009-4.38,30.432-4.38,30.432S205.885,639.5,207.117,648.675Z" transform="translate(-78.335 -137.787)" fill="#474463"/>
    <path id="Tracé_378" data-name="Tracé 378" d="M260.25,243.449a26.412,26.412,0,0,0,3.509,13.163,13.958,13.958,0,0,0,11.628-2.8c2.111-1.859,3.473-4.4,5.288-6.556a38.54,38.54,0,0,1,3.782-3.732,11.714,11.714,0,0,1,2.983-2.161,4.049,4.049,0,0,1,3.6-.043c1.441.814,1.96,2.622,2.781,4.071a5.432,5.432,0,0,0,3.033,2.644,3.213,3.213,0,0,0,3.6-1.232c.893-1.542.238-3.948,1.744-4.885a9.078,9.078,0,0,1,1.225-.5c1.938-.879,2.161-3.48,2.32-5.6a3.5,3.5,0,0,1,1.189-2.788c.879-.562,2.025-.281,3.069-.252a4.325,4.325,0,0,0,.922-.079,26.47,26.47,0,0,0-50.67,10.728Z" transform="translate(-93.247 -69.371)" opacity="0.1"/>
    <path id="Tracé_379" data-name="Tracé 379" d="M311.138,204.467a8.79,8.79,0,0,1,3.566,6.4,3.364,3.364,0,0,1-.094,1.261,9.36,9.36,0,0,1-.641,1.254c-1.354,2.68.72,5.865.447,8.862a5.893,5.893,0,0,1-5.764,5.173c-1.045,0-2.161-.31-3.069.252a3.416,3.416,0,0,0-1.189,2.788c-.166,2.125-.382,4.726-2.32,5.6a10.164,10.164,0,0,0-1.225.5c-1.506.937-.843,3.35-1.744,4.878a3.206,3.206,0,0,1-3.6,1.239,5.461,5.461,0,0,1-3.033-2.644c-.829-1.441-1.326-3.257-2.781-4.071a4.071,4.071,0,0,0-3.6.036,11.743,11.743,0,0,0-2.983,2.161,39.362,39.362,0,0,0-3.782,3.732c-1.816,2.161-3.177,4.7-5.3,6.556-3.977,3.494-10.086,3.84-14.986,1.852a4.582,4.582,0,0,1-1.859-1.189,4.654,4.654,0,0,1-.865-2.133,25.6,25.6,0,0,1-.425-7.378,37.235,37.235,0,0,0,.432-5.764c-.137-2.075-.879-4.078-.98-6.153-.18-3.667,1.643-7.154,3.891-10.087,1.34-1.729,2.846-3.336,4.006-5.187,1.009-1.607,1.744-3.386,2.831-4.942,2.536-3.6,6.816-5.764,11.182-6.549s8.854-.288,13.235.432a108.884,108.884,0,0,0,11.527,1.787C305.353,203.336,308.076,202.2,311.138,204.467Z" transform="translate(-91.873 -64.777)" fill="#472727"/>
    <path id="Tracé_380" data-name="Tracé 380" d="M287.71,301.33l4.625,12.4,8,22.666s.079.231.216.663h0l-10.086-33.8A25.42,25.42,0,0,1,287.71,301.33Z" transform="translate(-100.923 -92.958)" opacity="0.1"/>
    <path id="Tracé_381" data-name="Tracé 381" d="M218.313,495.915s-.483,14.993,3.559,18.732l10.749-20.274L223.587,490Z" transform="translate(-81.519 -145.698)" fill="#ffb9b9"/>
    <path id="Tracé_382" data-name="Tracé 382" d="M183.48,443.6c4.935,5.764,26.4,6.78,26.4,6.78l21.275-33.487s5.043-3.494,14.474-19.215,9.143-27.839,8.646-36.881-6.484-35.036-6.484-35.036c-.915-5.85-14.164-42.507-14.164-42.507a18.781,18.781,0,0,1-7.01,7.01c-8.177,5.123-19.611,7.219-19.611,7.219-18.393,2.673-15,21.679-15,21.679s-.223,73.9.929,82.731S183.48,443.6,183.48,443.6Z" transform="translate(-71.787 -87.904)" opacity="0.1"/>
    <path id="Tracé_383" data-name="Tracé 383" d="M189.49,486.688l.612,5.476,7.471-2.738,5.476-8.285-4.107-3.22Z" transform="translate(-52.97 -133.597)" fill="#cbcdda"/>
    <path id="Tracé_384" data-name="Tracé 384" d="M218.3,469.814l3.9.4,37.666,3.761a61.016,61.016,0,0,0,18.1-.886l17.457-3.494c-.807-2.831-1.441-4.568-1.441-4.568-1.888,1.34-12.695,2.882-18.285,4.186a31.815,31.815,0,0,1-9.366.72,208.091,208.091,0,0,1-41.765-7.63l-1.7,2.032Z" transform="translate(-81.521 -137.955)" opacity="0.1"/>
    <g id="Groupe_22" data-name="Groupe 22" transform="translate(128.497 323.913)" opacity="0.1">
      <path id="Tracé_385" data-name="Tracé 385" d="M322.75,466.289a3.925,3.925,0,0,0,.367-.209l.036.1Z" transform="translate(-239.215 -462.924)"/>
      <path id="Tracé_386" data-name="Tracé 386" d="M210.339,606.9s6.441-24.424,4.38-30.432c0,0,3.7-25.31,1.506-32.846s1.513-63.149,1.513-63.149l1.218-10.425.72-5.879.288-2.464s.49.159,1.441.432l.872.259-.2.965-.684,5.879-1.218,10.425s-3.7,55.605-1.513,63.149-1.5,32.846-1.5,32.846c2.053,6.009-4.38,30.432-4.38,30.432s-4.525,32.608-3.293,41.787,2.882,34.791,2.882,34.791c4.2,6.311,12.133,5.519,16.1,4.633-.043.108-.072.166-.072.166s-12.738,4.654-18.494-3.97c0,0-1.643-25.62-2.882-34.8S210.339,606.9,210.339,606.9Z" transform="translate(-206.804 -461.7)"/>
      <path id="Tracé_387" data-name="Tracé 387" d="M254.634,678c-2.161-6.16,2.061-26.023,2.061-26.023s7.522-21.232,6.29-36.989c-.512-6.563-.475-15.569-.259-23.847,1.751-10.663,3.415-22.587,3.415-22.587s-1.924,29.856-.684,45.613-6.3,36.989-6.3,36.989-4.251,19.863-2.053,26.023-5.483,31.643-5.483,31.643c.548,5.929,14.625,5.173,20.173,4.633l-.209.569s-21.78,3.019-22.457-4.38C249.159,709.639,256.825,684.149,254.634,678Z" transform="translate(-218.635 -491.568)"/>
    </g>
    <path id="Tracé_388" data-name="Tracé 388" d="M182.34,443.6c4.935,5.764,26.4,6.78,26.4,6.78l21.268-33.487s5.043-3.494,14.481-19.215,9.143-27.839,8.646-36.881-6.484-35.036-6.484-35.036c-.915-5.85-14.164-42.507-14.164-42.507a18.781,18.781,0,0,1-7.01,7.01c-8.184,5.123-19.6,7.219-19.6,7.219-18.393,2.673-15,21.679-15,21.679s-.2,73.869.929,82.7S182.34,443.6,182.34,443.6Z" transform="translate(-71.469 -87.904)" fill="#4c4c78"/>
    <path id="Tracé_389" data-name="Tracé 389" d="M245.29,301.413l4.625,1.744-3.084,2.161,23,55.476c-.533-9.042-6.484-35.036-6.484-35.036-.915-5.85-14.164-42.507-14.164-42.507a18.781,18.781,0,0,1-7.01,7.01Z" transform="translate(-88.193 -87.904)" opacity="0.1"/>
    <path id="Tracé_390" data-name="Tracé 390" d="M200.034,431.169,176.5,425.11l-3.084,9.553,24.042,5.857Z" transform="translate(-48.478 -118.834)" opacity="0.1"/>
    <path id="Tracé_391" data-name="Tracé 391" d="M209.192,313.35s10.684,10.087,6.679,32.464-10.476,46.744-10.476,46.744l17.4,48.185s-12.125,12.637-18.084,14.172l-17.363-38.523s-8.112-13.357-5.958-34.309,9.964-54.863,9.964-54.863S191.317,306.57,209.192,313.35Z" transform="translate(-71.101 -95.936)" opacity="0.1"/>
    <path id="Tracé_392" data-name="Tracé 392" d="M208.052,313.35s10.685,10.087,6.679,32.464-10.476,46.744-10.476,46.744L221.6,440.742s-12.1,12.637-18.076,14.172l-17.363-38.523s-8.112-13.357-5.958-34.309,9.964-54.863,9.964-54.863S190.163,306.57,208.052,313.35Z" transform="translate(-70.768 -95.936)" fill="#4c4c78"/>
    <path id="Tracé_393" data-name="Tracé 393" d="M232.117,492.091s-13.559,18.732-12.529,23.775,5,2.327,5,2.327l5.367-7.334,4.8-13.689S234.279,491.284,232.117,492.091Z" transform="translate(-81.865 -146.261)" opacity="0.1"/>
    <path id="Tracé_394" data-name="Tracé 394" d="M234.444,492.091s-13.566,18.732-12.536,23.775,5,2.327,5,2.327l5.339-7.327,4.8-13.689S236.577,491.284,234.444,492.091Z" transform="translate(-82.514 -146.261)" opacity="0.1"/>
    <path id="Tracé_395" data-name="Tracé 395" d="M233.3,492.091s-13.559,18.732-12.529,23.775,5,2.327,5,2.327l5.339-7.327,4.8-13.689S235.437,491.284,233.3,492.091Z" transform="translate(-82.195 -146.261)" fill="#474463"/>
  </g>
</svg>
