<svg xmlns="http://www.w3.org/2000/svg" xmlns:xlink="http://www.w3.org/1999/xlink" width="867.948" height="442.292" viewBox="0 0 867.948 442.292">
  <defs>
    <linearGradient id="linear-gradient" x1="0.5" y1="1" x2="0.5" gradientUnits="objectBoundingBox">
      <stop offset="0" stop-color="gray" stop-opacity="0.251"/>
      <stop offset="0.54" stop-color="gray" stop-opacity="0.122"/>
      <stop offset="1" stop-color="gray" stop-opacity="0.102"/>
    </linearGradient>
  </defs>
  <g id="Groupe_14" data-name="Groupe 14" transform="translate(-250 -1442)">
    <rect id="Rectangle_75" data-name="Rectangle 75" width="1.291" height="69.046" transform="translate(509.724 1517.499)" fill="#3f3d56"/>
    <rect id="Rectangle_76" data-name="Rectangle 76" width="1.291" height="60.753" transform="translate(509.724 1607.097)" fill="#3f3d56"/>
    <rect id="Rectangle_77" data-name="Rectangle 77" width="100.02" height="1.291" transform="translate(507.788 1677.53)" fill="#3f3d56"/>
    <rect id="Rectangle_78" data-name="Rectangle 78" width="1.291" height="54.85" transform="translate(465.199 1694.953)" fill="#3f3d56"/>
    <rect id="Rectangle_79" data-name="Rectangle 79" width="151.643" height="1.291" transform="translate(476.814 1759.482)" fill="#3f3d56"/>
    <path id="Tracé_59" data-name="Tracé 59" d="M623.247,551.052" transform="translate(15.535 1198.75)" fill="none" stroke="#3f3d56" stroke-miterlimit="10" stroke-width="2"/>
    <path id="Tracé_60" data-name="Tracé 60" d="M623.247,469.052" transform="translate(15.535 1227.837)" fill="none" stroke="#3f3d56" stroke-miterlimit="10" stroke-width="2"/>
    <rect id="Rectangle_80" data-name="Rectangle 80" width="1.291" height="65.174" transform="translate(753.643 1473.619)" fill="#3f3d56"/>
    <rect id="Rectangle_81" data-name="Rectangle 81" width="94.879" height="1.291" transform="translate(649.085 1549.118)" fill="#3f3d56"/>
    <rect id="Rectangle_82" data-name="Rectangle 82" width="1.291" height="87.114" transform="translate(638.137 1559.442)" fill="#3f3d56"/>
    <path id="Tracé_61" data-name="Tracé 61" d="M418.217,318.992a10.97,10.97,0,1,1,10.97-10.97A10.97,10.97,0,0,1,418.217,318.992Zm0-20.649a9.679,9.679,0,1,0,9.679,9.679A9.679,9.679,0,0,0,418.217,298.343Z" transform="translate(92.153 1288.847)" fill="#3f3d56"/>
    <path id="Tracé_62" data-name="Tracé 62" d="M350.217,571.992a10.97,10.97,0,1,1,10.97-10.97,10.97,10.97,0,0,1-10.97,10.97Zm0-20.649a9.679,9.679,0,1,0,9.679,9.679,9.679,9.679,0,0,0-9.679-9.679Z" transform="translate(116.273 1199.105)" fill="#3f3d56"/>
    <circle id="Ellipse_7" data-name="Ellipse 7" cx="10.325" cy="10.325" r="10.325" transform="translate(500.69 1667.851)" fill="#6c63ff"/>
    <rect id="Rectangle_83" data-name="Rectangle 83" width="107.118" height="1.291" transform="translate(777.519 1596.224)" fill="#3f3d56"/>
    <rect id="Rectangle_84" data-name="Rectangle 84" width="1.291" height="60.753" transform="translate(766.549 1607.097)" fill="#3f3d56"/>
    <rect id="Rectangle_85" data-name="Rectangle 85" width="85.823" height="1.291" transform="translate(670.401 1677.53)" fill="#3f3d56"/>
    <rect id="Rectangle_86" data-name="Rectangle 86" width="89.05" height="1.291" transform="translate(821.398 1683.338)" fill="#3f3d56"/>
    <rect id="Rectangle_87" data-name="Rectangle 87" width="1.291" height="54.85" transform="translate(811.074 1694.953)" fill="#3f3d56"/>
    <rect id="Rectangle_88" data-name="Rectangle 88" width="151.643" height="1.291" transform="translate(649.106 1759.482)" fill="#3f3d56"/>
    <rect id="Rectangle_89" data-name="Rectangle 89" width="1.291" height="40.008" transform="translate(638.137 1709.795)" fill="#3f3d56"/>
    <circle id="Ellipse_8" data-name="Ellipse 8" cx="10.325" cy="10.325" r="10.325" transform="translate(756.87 1586.544)" fill="#6c63ff"/>
    <path id="Tracé_63" data-name="Tracé 63" d="M796.217,244.992a10.97,10.97,0,1,1,10.97-10.97,10.97,10.97,0,0,1-10.97,10.97Zm0-20.649a9.679,9.679,0,1,0,9.679,9.679,9.679,9.679,0,0,0-9.679-9.679Z" transform="translate(-41.928 1315.096)" fill="#3f3d56"/>
    <path id="Tracé_64" data-name="Tracé 64" d="M617.217,244.992a10.97,10.97,0,1,1,10.97-10.97,10.97,10.97,0,0,1-10.97,10.97Zm0-20.649a9.679,9.679,0,1,0,9.679,9.679,9.679,9.679,0,0,0-9.679-9.679Z" transform="translate(21.565 1315.096)" fill="#3f3d56"/>
    <path id="Tracé_65" data-name="Tracé 65" d="M884.217,454.992a10.97,10.97,0,1,1,10.97-10.97A10.97,10.97,0,0,1,884.217,454.992Zm0-20.649a9.679,9.679,0,1,0,9.679,9.679,9.679,9.679,0,0,0-9.679-9.679Z" transform="translate(-73.143 1240.606)" fill="#3f3d56"/>
    <circle id="Ellipse_9" data-name="Ellipse 9" cx="10.325" cy="10.325" r="10.325" transform="translate(800.749 1749.802)" fill="#6c63ff"/>
    <path id="Tracé_66" data-name="Tracé 66" d="M617.217,571.992a10.97,10.97,0,1,1,10.97-10.97,10.97,10.97,0,0,1-10.97,10.97Zm0-20.649a9.679,9.679,0,1,0,9.679,9.679,9.679,9.679,0,0,0-9.679-9.679Z" transform="translate(21.565 1199.105)" fill="#3f3d56"/>
    <path id="Tracé_67" data-name="Tracé 67" d="M815.217,444.992a10.97,10.97,0,1,1,10.97-10.97A10.97,10.97,0,0,1,815.217,444.992Zm0-20.649a9.679,9.679,0,1,0,9.679,9.679A9.679,9.679,0,0,0,815.217,424.343Z" transform="translate(-48.668 1244.153)" fill="#3f3d56"/>
    <path id="Tracé_68" data-name="Tracé 68" d="M349.153,416.052a12.906,12.906,0,1,0,12.906,12.906A12.906,12.906,0,0,0,349.153,416.052Zm0,3.872a3.872,3.872,0,1,1-3.872,3.872,3.872,3.872,0,0,1,3.872-3.872Zm0,18.639a9.4,9.4,0,0,1-7.743-4.132c.062-2.581,5.162-4,7.743-4s7.681,1.421,7.743,4a9.417,9.417,0,0,1-7.743,4.132Z" transform="translate(117.337 1246.636)" fill="#3f3d56"/>
    <path id="Tracé_69" data-name="Tracé 69" d="M418.153,143.052a12.906,12.906,0,1,0,12.906,12.906,12.906,12.906,0,0,0-12.906-12.906Zm0,3.872a3.872,3.872,0,1,1-3.872,3.872,3.872,3.872,0,0,1,3.872-3.872Zm0,18.639a9.4,9.4,0,0,1-7.743-4.132c.062-2.581,5.162-4,7.743-4s7.681,1.421,7.743,4a9.417,9.417,0,0,1-7.743,4.132Z" transform="translate(92.862 1343.473)" fill="#3f3d56"/>
    <path id="Tracé_70" data-name="Tracé 70" d="M795.153,74.052a12.906,12.906,0,1,0,12.906,12.906A12.906,12.906,0,0,0,795.153,74.052Zm0,3.872a3.872,3.872,0,1,1-3.872,3.872A3.872,3.872,0,0,1,795.153,77.924Zm0,18.639a9.4,9.4,0,0,1-7.743-4.132c.062-2.581,5.162-4,7.743-4s7.682,1.421,7.744,4a9.417,9.417,0,0,1-7.743,4.132Z" transform="translate(-40.864 1367.948)" fill="#3f3d56"/>
    <path id="Tracé_71" data-name="Tracé 71" d="M1025.156,293.052a12.906,12.906,0,1,0,12.906,12.906A12.906,12.906,0,0,0,1025.156,293.052Zm0,3.872a3.872,3.872,0,1,1-3.872,3.872A3.872,3.872,0,0,1,1025.156,296.924Zm0,18.639a9.4,9.4,0,0,1-7.743-4.132c.062-2.581,5.162-4,7.743-4s7.681,1.421,7.744,4A9.418,9.418,0,0,1,1025.156,315.563Z" transform="translate(-122.449 1290.266)" fill="#3f3d56"/>
    <path id="Tracé_72" data-name="Tracé 72" d="M1063.156,428.052a12.906,12.906,0,1,0,12.906,12.906A12.906,12.906,0,0,0,1063.156,428.052Zm0,3.872a3.872,3.872,0,1,1-3.872,3.872A3.872,3.872,0,0,1,1063.156,431.924Zm0,18.639a9.4,9.4,0,0,1-7.743-4.132c.062-2.581,5.162-4,7.743-4s7.681,1.421,7.743,4A9.417,9.417,0,0,1,1063.156,450.563Z" transform="translate(-135.928 1242.38)" fill="#3f3d56"/>
    <circle id="Ellipse_11" data-name="Ellipse 11" cx="31" cy="31" r="31" transform="translate(608 1647.071)" fill="#6c63ff"/>
    <g id="Groupe_11" data-name="Groupe 11" transform="translate(616.846 1664.662)">
      <g id="Groupe_10" data-name="Groupe 10" transform="translate(0 8.099)">
        <line id="Ligne_13" data-name="Ligne 13" x2="22.473" transform="translate(0 0.775)" fill="none" stroke="#fff" stroke-linecap="round" stroke-width="3"/>
        <line id="Ligne_14" data-name="Ligne 14" x2="17.048" transform="translate(5.424 5.424)" fill="none" stroke="#fff" stroke-linecap="round" stroke-width="3"/>
        <line id="Ligne_15" data-name="Ligne 15" x2="10.849" transform="translate(11.624 10.074)" fill="none" stroke="#fff" stroke-linecap="round" stroke-width="3"/>
        <line id="Ligne_16" data-name="Ligne 16" y2="10.849" transform="translate(26.347)" fill="none" stroke="#fff" stroke-linecap="round" stroke-width="3"/>
      </g>
      <text id="D" transform="translate(27.154 19.409)" fill="#fff" font-size="18" font-family="SegoeUI-Bold, Segoe UI" font-weight="700"><tspan x="0" y="0">D</tspan></text>
    </g>
    <g id="Groupe_13" data-name="Groupe 13" transform="translate(250 1541.325)">
      <ellipse id="Ellipse_12" data-name="Ellipse 12" cx="130.084" cy="17.597" rx="130.084" ry="17.597" transform="translate(38.635 307.772)" fill="#6c63ff" opacity="0.1"/>
      <ellipse id="Ellipse_21" data-name="Ellipse 21" cx="130.084" cy="17.597" rx="130.084" ry="17.597" transform="translate(607.78 305.191)" fill="#6c63ff" opacity="0.1"/>
      <path id="Tracé_92" data-name="Tracé 92" d="M468.984,138.991s-4.027-7.947-3.484-10.309-2.833-7.408-2.833-7.408l.218-8.371s-.466.856-2.9,1.6c-.205-.27-.428-.535-.659-.787a17.254,17.254,0,0,0-2.919-2.435l-4.279-9.235-4.138-6.338s-6.526-13.266-13.267-16.194l-1.061-2.076a.163.163,0,0,0,.064-.21l-1.078-2.11a.167.167,0,0,0-.21-.077l-1.031-2.02a16.224,16.224,0,0,0-3-7.228c-.107-.15-.223-.287-.334-.428l1.678-.06c1.472-.056,3.115-.184,4.1-1.284a3.752,3.752,0,0,0,.766-1.412,5.992,5.992,0,0,0,.248-1.254c0-.064,0-.128,0-.188V60.129a3.445,3.445,0,0,0-.073-.428.294.294,0,0,0-.034-.167,4.971,4.971,0,0,0-.133-.5.667.667,0,0,1-.03-.1c-.06-.171-.124-.342-.2-.509a.471.471,0,0,1-.03-.068c-.077-.167-.163-.33-.252-.488l-.026-.051h0a1.707,1.707,0,0,0-.107-.193c-1.16-1.823-3.2-2.889-5.135-3.852A59.351,59.351,0,0,0,423.3,51.21a29.957,29.957,0,0,0-21.825.308,8.642,8.642,0,0,0-1.943,1.036,10.039,10.039,0,0,0-2.118,2.491l-3.317,4.9a6.922,6.922,0,0,0-1.074,1.977c-.621,2.328,1.327,4.66,1.108,7.061-.111,1.194-.753,2.29-.877,3.484a8.29,8.29,0,0,0,1.254,4.416l4.746,9.415c-.252,1.237-.531,2.5-.835,3.727h0c-2.187,2.26-2.923,3.492-3.124,4.16l-.064.034h0a3.852,3.852,0,0,0-1.1,1.07l-4.511,4.382s-7.84,2.037-9.471,4.618c0,0-12.3-.539-12.2,16.643,0,0-.544,6.445-.856,7.305s0,9.556,0,9.556l-.146,17.614s-.471,9.342,0,12.672,1.014,16,1.014,16,2.94,12.351,1.853,16.754c-1.044,4.215,0,13.433,1.712,13.472.325.672.7,1,1.1.813a4.719,4.719,0,0,1,.543-.2v10.523s-2.118,14.743.257,17.546a57.374,57.374,0,0,0-3.894,7.074l-16.647-.894-2.118.595h0l-1.943.544-1.177,27.076.471.034-.034.826,1.113.081L347.656,305.6l23.045,1.9c-1.014,2.272-2.191,4.707-2.649,4.943-.856.428-2.722-.856-3.158-.325a3.544,3.544,0,0,1-3.265.856c-1.524-.325-2.5,1.4-2.5,1.4s.223.2.556.561c-2.474-.3-5.6,1.027-7.3,1.883-.762.385-1.237.672-1.237.672H346.65l2.469,15.753,1.742,1.19.428,12.411s6.967,21.479,10.159,21.338a1.442,1.442,0,0,0,1.074-.539c1.712-1.977.526-8.769.526-8.769V347.553s2.61-1.147,2.319-2.007,4.211-10.271,4.613-11.127a.073.073,0,0,0,.034-.068c0-.967,1.96-2.041,1.849-2.469s4.793-3.115,5.135-5.478,3.591-1.074,3.591-1.074l4.134-4.75c.124,5.79.359,9.843.766,10.87,1.96,4.943,2.722,12.676,2.722,12.676s-1.2,5.906,0,7.84a20.748,20.748,0,0,0,3.638,3.5c-1.237,3.749-1.061,11.717-1.061,11.717v4.579l9.145,2.568s.287-2.29.723-2.29,6.244,4.438,6.244,4.438,22.356.287,28.014,0c2.14-.107,2.722-1.027,2.392-2.14-.544-1.853-3.595-4.254-6.308-4.438-4.357-.287-9.873-4.866-9.873-4.866s.428-1.006-1.887-2.435c-1.6-.984-6.03-4.969-8.769-7.3.128-.175.261-.351.385-.539,0,0-3.7-5.135-2.936-7.412s-.33-5.563-.33-5.563-2.067-6.338-2.067-9.56c0-2.041-.308-13.652-.531-21.885l1.909.158.039-.822.856.077,8.093.745-.248-8.649a54.125,54.125,0,0,0,8.486-4.314,17.313,17.313,0,0,1,8.491-3.65s9.252-4.939,10.669-6.98,1.284-16.861,1.284-16.861l-.762-31.762v-.026s-.65-15.355-1.96-18.684c-.479-1.232-1.665-5.341-2.961-10.031a7.75,7.75,0,0,1,2.234.094c.047,1.147.077,1.934.077,2.2,0,1.823,2.61,3.372,2.61,3.372l-1.849-41.083V146.172c5.7,1.815,19.485,2.379,19.485,2.379C471.376,148.03,468.984,138.991,468.984,138.991Zm-53.768-35.3h-.03a28.51,28.51,0,0,1,.792-3.188ZM377.8,244.605c3.377.556,7.275.394,7.57-.261.03-.064.068-.18.12-.33.107.188.21.381.317.578l-.329,6.2v.141l-11.127-.6C375.134,247.015,376.607,245.4,377.8,244.605Zm37.09,31.266-.287-10.035c.5-1.849.942-3.526,1.322-4.964.171,1.194.317,2.294.428,3.308C417.412,273.7,415.858,275.559,414.9,275.871Zm31.668-150.459c-.638.244-3.064-1.284-5.366-2.867,0-.291.021-.578.034-.856.325-6.552-10.344-10.63-13.609-11.383a11.729,11.729,0,0,1-2.294-.856,53.5,53.5,0,0,1-5.067-2.863l.043-.124s-4.211-2.666-4.3-5.991a56.887,56.887,0,0,1,3.62-8.786c.081-.167.171-.342.257-.509a16.8,16.8,0,0,0,5.478-2.9c.655,8.559,13.04,15.924,13.04,15.924l1.322,2.14.312.5c-.668.394-.989.71-.762.894.942.753,3.218,5.016,4.16,6.817.257.488.428.792.428.792s2.024,5.508,3.184,10.117a.856.856,0,0,0-.488-.051Z" transform="translate(-268.16 -49.303)" fill="url(#linear-gradient)"/>
      <path id="Tracé_93" data-name="Tracé 93" d="M556.111,144.5l-.146.193-.5.663-9.522,6.727-2.02-3.321-1.284-2.14s-18.98-11.383-10.819-22.356,20.221,13.908,20.221,13.908Z" transform="translate(-372.923 -90.586)" fill="#ffc5d3"/>
      <rect id="Rectangle_90" data-name="Rectangle 90" width="0.325" height="2.679" rx="0.163" transform="matrix(0.893, -0.45, 0.45, 0.893, 163.676, 27.107)" fill="#3a3768"/>
      <rect id="Rectangle_91" data-name="Rectangle 91" width="0.184" height="0.882" rx="0.092" transform="matrix(0.893, -0.45, 0.45, 0.893, 153.089, 30.087)" fill="#3a3768"/>
      <rect id="Rectangle_92" data-name="Rectangle 92" width="0.205" height="1.536" rx="0.103" transform="matrix(0.893, -0.45, 0.45, 0.893, 153.808, 31.53)" fill="#3a3768"/>
      <rect id="Rectangle_93" data-name="Rectangle 93" width="0.197" height="1.549" rx="0.098" transform="matrix(0.893, -0.45, 0.45, 0.893, 154.74, 33.38)" fill="#3a3768"/>
      <rect id="Rectangle_94" data-name="Rectangle 94" width="10.87" height="22.091" rx="2.24" transform="matrix(0.893, -0.45, 0.45, 0.893, 151.866, 27.436)" fill="#3a3768"/>
      <path id="Tracé_94" data-name="Tracé 94" d="M527.418,104.962a.385.385,0,0,0-.171.522l.034.073a.389.389,0,0,1-.171.526l-4.117,2.071a.385.385,0,0,1-.522-.171l-.038-.073a.389.389,0,0,0-.522-.175l-.8.407a.736.736,0,0,0-.33,1l8.747,17.362a.749.749,0,0,0,1,.33l7.181-3.616a.749.749,0,0,0,.33-1l-8.752-17.371a.745.745,0,0,0-1-.33Z" transform="translate(-367.724 -80.84)" fill="#6c63ff"/>
      <rect id="Rectangle_95" data-name="Rectangle 95" width="1.519" height="0.308" rx="0.154" transform="matrix(0.893, -0.45, 0.45, 0.893, 156.083, 26.051)" fill="#e6e8ec"/>
      <circle id="Ellipse_13" data-name="Ellipse 13" cx="0.175" cy="0.175" r="0.175" transform="translate(157.687 25.137)" fill="#e6e8ec"/>
      <path id="Tracé_95" data-name="Tracé 95" d="M547.225,261.28l-2.675,71.776s8.987-3,10.378-.749-1.5-35.948-1.5-35.948Z" transform="translate(-381.368 -170.564)" fill="#5f5570"/>
      <path id="Tracé_96" data-name="Tracé 96" d="M547.225,261.28l-2.675,71.776s8.987-3,10.378-.749-1.5-35.948-1.5-35.948Z" transform="translate(-381.368 -170.564)" opacity="0.15"/>
      <path id="Tracé_97" data-name="Tracé 97" d="M493.823,783.267c-5.563.287-27.53,0-27.53,0s-5.709-4.421-6.137-4.421-.71,2.281-.71,2.281l-8.987-2.568V774s-.287-12.988,2.422-13.553,14.7,0,14.7,0c.428-.141,8.559,7.562,10.84,8.987s1.853,2.426,1.853,2.426,5.422,4.562,9.7,4.849c2.666.18,5.666,2.568,6.2,4.421C496.5,782.244,495.919,783.16,493.823,783.267Z" transform="translate(-327.538 -455.967)" fill="#bc8487"/>
      <path id="Tracé_98" data-name="Tracé 98" d="M493.834,801.839c-5.563.287-27.53,0-27.53,0s-5.709-4.421-6.137-4.421-.71,2.281-.71,2.281l-8.987-2.568V792.66l8.414,3.047,6.706,3.993h30.594C496.509,800.817,495.931,801.733,493.834,801.839Z" transform="translate(-327.55 -474.54)" opacity="0.1"/>
      <path id="Tracé_99" data-name="Tracé 99" d="M493.43,791.717s6.847-6.56,11.426-4.708" transform="translate(-352.125 -471.119)" stroke="#000" stroke-miterlimit="10" stroke-width="1" opacity="0.1"/>
      <path id="Tracé_100" data-name="Tracé 100" d="M367.532,701.257c.287.856-2.281,2-2.281,2v11.268s1.164,6.766-.518,8.739a1.408,1.408,0,0,1-1.053.535c-3.137.141-9.984-21.256-9.984-21.256l-.428-12.364-1.712-1.185L349.13,673.3h4.425s.466-.287,1.215-.672c2.14-1.091,6.62-3,9.055-1.181l8.272,18.637S367.249,700.4,367.532,701.257Z" transform="translate(-269.578 -404.769)" fill="#bc8487"/>
      <path id="Tracé_101" data-name="Tracé 101" d="M364.733,725.845a1.408,1.408,0,0,1-1.053.535c-3.137.141-9.984-21.256-9.984-21.256l-.428-12.363-1.712-1.186-2.426-15.693h4.425s.466-.287,1.215-.672l1.066,16.078.569,13.836S361.78,720.188,364.733,725.845Z" transform="translate(-269.578 -407.353)" opacity="0.1"/>
      <path id="Tracé_102" data-name="Tracé 102" d="M460.5,527.714c-1.391,2.033-10.485,6.954-10.485,6.954a16.745,16.745,0,0,0-8.345,3.638c-2.324,1.772-10.4,5.285-17.653,8.268-6.774,2.786-12.839,5.106-12.839,5.106L404.2,559.81,398.877,566s-3.21-1.284-3.531,1.07-5.135,5.028-5.028,5.456-1.819,1.5-1.819,2.461-7.168-6.954-7.061-11.769-3.638-8.131-3.638-8.131.963-1.712,2.461-1.391a3.444,3.444,0,0,0,3.21-.856c.428-.535,2.247.749,3.1.321s4.28-8.88,4.28-8.88l13.339-8.949,26.533-17.786,1.224-.822s3.531,1.618,2.1-11.636c-.278-2.568-.745-5.687-1.455-9.488-4.386-23.43,11.341-26.105,11.341-26.105l13.8,4.6,3.317,5.135v.026L461.8,510.9S461.892,525.681,460.5,527.714Z" transform="translate(-285.979 -289.676)" fill="#433a59"/>
      <path id="Tracé_103" data-name="Tracé 103" d="M459.092,606.928s.043,1.519.107,3.882c-6.774,2.786-12.839,5.106-12.839,5.106l-6.984,8.131c-.116-6.74-.09-15.5,0-24.47L465.91,581.79C462.627,593.957,459.092,606.928,459.092,606.928Z" transform="translate(-321.16 -353.912)" opacity="0.1"/>
      <path id="Tracé_104" data-name="Tracé 104" d="M533.226,479.266v.026l-20.756.4s-3.638,14.229-4.173,17.225c-.133.736-.937,3.882-2.076,8.2-.278-2.568-.745-5.687-1.455-9.488-4.386-23.43,11.341-26.1,11.341-26.1l13.8,4.6Z" transform="translate(-358.169 -289.693)" opacity="0.1"/>
      <path id="Tracé_105" data-name="Tracé 105" d="M439.831,391.645,437.156,443s-1.926,75.426,0,80.348,2.675,12.625,2.675,12.625-1.177,5.884,0,7.81,4.921,4.065,4.814,5.135,11.448,6.847,17.439-2.354c0,0-3.638-5.135-2.889-7.382s-.321-5.563-.321-5.563-2.033-6.312-2.033-9.535-.749-30.17-.749-30.17,11.662-42.8,12.2-45.791,4.173-17.225,4.173-17.225l22.039-.428s-.642-15.3-1.926-18.616-7.6-27.6-7.6-27.6Z" transform="translate(-319.444 -240.909)" fill="#433a59"/>
      <path id="Tracé_106" data-name="Tracé 106" d="M192.7,469.89l-1.913.548-.077,1.892,57.354.74v-.745Z" transform="translate(-109.096 -268.81)" fill="#7b728f"/>
      <path id="Tracé_107" data-name="Tracé 107" d="M484.159,131.872c-8.345,16.925-3.162,20.465-2.337,20.9-1.767-.822-24.74-11.615-21.719-14.353,1.964-1.785,3.646-9.548,4.635-15.111.586-3.321.929-5.859.929-5.859l24.106,4.421A113.635,113.635,0,0,0,484.159,131.872Z" transform="translate(-332.905 -88.286)" fill="#ffc5d3"/>
      <path id="Tracé_108" data-name="Tracé 108" d="M574.885,174.878l-.5.663-9.539,6.727-2.02-3.321c2.94-1.712,11.756-4.707,11.756-4.707Z" transform="translate(-391.825 -120.773)" opacity="0.1"/>
      <path id="Tracé_109" data-name="Tracé 109" d="M583,190.923c-.856,3-15.3,0-15.3,0l-1.5-2.354s-.15-.3-.4-.787c-.924-1.793-3.163-6.038-4.087-6.792-1.177-.963,12.625-5.67,12.625-5.67l4.228,9.2a17.041,17.041,0,0,1,2.867,2.426C582.5,188.107,583.391,189.558,583,190.923Z" transform="translate(-391.146 -121.391)" fill="#e5e8ef"/>
      <path id="Tracé_110" data-name="Tracé 110" d="M555.55,215s8.559,6.753,9.843,6.265,22.04,13.528,22.04,13.528,2.354,8.987-7.382,9.522c0,0-20.649-.856-21.5-3.852S555.55,215,555.55,215Z" transform="translate(-387.661 -144.09)" fill="#5f5570"/>
      <path id="Tracé_111" data-name="Tracé 111" d="M488.608,183.263l-9.308,9.629,13.052,83.022,5.135-3s13.266,5.884,14.336.428.775-26.961.775-26.961l-1.738-38.849s-6.1-13.587-6.1-14.015-8.794-7.061-8.794-7.061l-4.151-3.21Z" transform="translate(-344.042 -125.927)" opacity="0.1"/>
      <path id="Tracé_112" data-name="Tracé 112" d="M488.608,180.263l-9.308,9.629,13.052,83.022,5.135-3s13.266,5.884,14.336.428.775-26.961.775-26.961l-1.738-38.849s-6.1-13.587-6.1-14.015-8.794-7.061-8.794-7.061l-4.151-3.21Z" transform="translate(-344.042 -124.211)" fill="#e5e8ef"/>
      <path id="Tracé_113" data-name="Tracé 113" d="M498.868,181.082l-2.568,5.242,2.568,2.709s9.2,18.582,7.382,29.6l1.926,36.269,6.205,6.1,4.922-5.683-2.354-32.952S510.636,195.191,504,186.739l-1.926-7.489Z" transform="translate(-353.767 -123.639)" opacity="0.1"/>
      <path id="Tracé_114" data-name="Tracé 114" d="M498.868,179.082l-2.568,5.242,2.568,2.709s9.2,18.582,7.382,29.6l1.926,36.269,6.205,6.1,4.922-5.683-2.354-32.952S510.636,193.191,504,184.739l-1.926-7.489Z" transform="translate(-353.767 -122.495)" fill="#bc8487"/>
      <path id="Tracé_115" data-name="Tracé 115" d="M496.335,121.842c-2.337,3.766-4.177,7.083-5.615,10a16.455,16.455,0,0,1-4.665.672c-5.289,0-8.336-3.659-11.332-7.545-.685-.882-2.936-.676-3.424-1.712.586-3.321.929-5.859.929-5.859Z" transform="translate(-339.466 -88.258)" opacity="0.1"/>
      <path id="Tracé_116" data-name="Tracé 116" d="M500.253,91.45a16.4,16.4,0,1,1-3.12-9.625A16.4,16.4,0,0,1,500.253,91.45Z" transform="translate(-337.26 -64.028)" fill="#ffc5d3"/>
      <path id="Tracé_117" data-name="Tracé 117" d="M475.3,170.486l-13.48-16.262s-1.245-.5,2.961-4.9c0,0,15.449,12.043,16.408,14.088S475.3,170.486,475.3,170.486Z" transform="translate(-333.944 -106.517)" opacity="0.1"/>
      <path id="Tracé_118" data-name="Tracé 118" d="M474.3,168.486l-13.48-16.262s-1.245-.5,2.961-4.9c0,0,15.449,12.043,16.408,14.088S474.3,168.486,474.3,168.486Z" transform="translate(-333.372 -105.373)" fill="#e5e8ef"/>
      <path id="Tracé_119" data-name="Tracé 119" d="M536.541,290.864s-2.568-1.541-2.568-3.359-1.284-27.5-1.284-27.5-1.883-15.325-3.852-27.5h0c-1.156-7.177-2.341-13.266-3.18-14.473l-.034-.051c-2.247-2.889-1.819-17.011-15.834-37.66a77.4,77.4,0,0,0,8.559,5.221,11.735,11.735,0,0,0,2.255.856c3.209.749,13.694,4.814,13.373,11.341s.749,21.5.749,21.5v30.7Z" transform="translate(-361.484 -124.251)" fill="#5f5570"/>
      <path id="Tracé_120" data-name="Tracé 120" d="M588.531,206.466c-.856,3-15.3,0-15.3,0l-1.5-2.354s-.15-.3-.4-.787a.284.284,0,0,1-.021-.051c8.392.586,13.07-.026,15.654-.783C588.034,203.65,588.92,205.1,588.531,206.466Z" transform="translate(-396.676 -136.933)" opacity="0.1"/>
      <path id="Tracé_121" data-name="Tracé 121" d="M572.3,203s4.494,12.411,3.852,15.513,10.378,15.3,10.378,15.3l10.485-7.275s-3.959-7.917-3.424-10.271-2.782-7.382-2.782-7.382l.214-8.336S589.1,204.166,572.3,203Z" transform="translate(-397.242 -135.824)" fill="#5f5570"/>
      <path id="Tracé_122" data-name="Tracé 122" d="M497.35,82.091l-8.131.308a9.055,9.055,0,0,0-2.354.3c-2.906.894-4.245,3.984-4.352,6.762s-1.712,5.889-4.823,6.133a1.2,1.2,0,0,1-.886-.2,1.464,1.464,0,0,1-.377-.757,16.56,16.56,0,0,0-2.046-4.571,3.584,3.584,0,0,0-2.568,2.726,15.335,15.335,0,0,0-.24,3.941,25.513,25.513,0,0,1-.484,5A16.4,16.4,0,1,1,497.365,82.09Z" transform="translate(-337.477 -64.293)" opacity="0.1"/>
      <path id="Tracé_123" data-name="Tracé 123" d="M479.292,69.082a9.056,9.056,0,0,1,2.354-.3l9.873-.368c1.447-.056,3.06-.184,4.031-1.258a3.771,3.771,0,0,0,.753-1.408,6.077,6.077,0,0,0-.638-4.977c-1.143-1.819-3.145-2.876-5.054-3.852a58.72,58.72,0,0,0-5.465-2.568,29.1,29.1,0,0,0-21.44.308,8.654,8.654,0,0,0-1.909,1.023,9.864,9.864,0,0,0-2.08,2.482l-3.248,4.9a6.74,6.74,0,0,0-1.023,1.977c-.612,2.324,1.284,4.648,1.087,7.04-.111,1.19-.74,2.281-.856,3.471a8.346,8.346,0,0,0,1.237,4.4l5.709,11.516a25.516,25.516,0,0,0,1.382-8.345,14.784,14.784,0,0,1,.24-3.941,3.611,3.611,0,0,1,2.568-2.726,16.506,16.506,0,0,1,2.05,4.571,1.446,1.446,0,0,0,.377.757,1.2,1.2,0,0,0,.886.2c3.128-.244,4.707-3.325,4.823-6.133S476.386,69.976,479.292,69.082Z" transform="translate(-330.327 -51.109)" fill="#8f7080"/>
      <path id="Tracé_124" data-name="Tracé 124" d="M190.89,469.643l4-1.143,60.268,3.282-6.633.856Z" transform="translate(-109.199 -268.015)" fill="#7b728f"/>
      <path id="Tracé_125" data-name="Tracé 125" d="M190.89,469.643l4-1.143,60.268,3.282-6.633.856Z" transform="translate(-109.199 -268.015)" opacity="0.1"/>
      <path id="Tracé_126" data-name="Tracé 126" d="M330.532,533.943l-7.951-.74-2.79-.257V488.722l.736-10.266.163-2.285h8.2Z" transform="translate(-182.936 -272.402)" fill="#7b728f"/>
      <path id="Tracé_127" data-name="Tracé 127" d="M328.358,534.278l-6.342-.7-2.225-.244V491.4l.586-9.732.128-2.17h6.543Z" transform="translate(-182.936 -274.307)" opacity="0.1"/>
      <path id="Tracé_128" data-name="Tracé 128" d="M401.42,508.323s3.959-8.683,5.619-8.953a25.537,25.537,0,0,1,4.707,0l-.27,2.516s-4.066.321-5.349,7.113Z" transform="translate(-299.491 -306.695)" fill="#7b728f"/>
      <path id="Tracé_129" data-name="Tracé 129" d="M401.42,508.323s3.959-8.683,5.619-8.953a25.537,25.537,0,0,1,4.707,0l-.27,2.516s-4.066.321-5.349,7.113Z" transform="translate(-299.491 -306.695)" opacity="0.1"/>
      <path id="Tracé_130" data-name="Tracé 130" d="M434.369,497.41s10.643,5.294,9.252,11.5l-5.777-.321s-2.782-9.252-4.973-9.736S434.369,497.41,434.369,497.41Z" transform="translate(-317.085 -305.642)" fill="#7b728f"/>
      <path id="Tracé_131" data-name="Tracé 131" d="M454.432,218.664v.312l-.214,35.635s-5.456,29.957-6.954,31.133-34.343-2.033-34.343-2.033L398.049,183.465c-.107-17.118,11.983-16.583,11.983-16.583,1.6-2.568,9.308-4.6,9.308-4.6l4.28-4.173.137-.193a3.8,3.8,0,0,1,1.078-1.066h0c.882-.509,1.442.163,1.763.826a4.974,4.974,0,0,1,.334.971C444.268,171.362,454.432,218.664,454.432,218.664Z" transform="translate(-297.562 -110.723)" fill="#5f5570"/>
      <path id="Tracé_132" data-name="Tracé 132" d="M481.892,219.9v.312c-5.379-9.843-26.1-47.134-31.775-48.992l2.183-1.5s1.455-.856-1.22-1.712c0,0-4.173.535-4.279-4.493l4.416-4.365,1.078-1.066h0l1.763.826a4.977,4.977,0,0,1,.334.971C471.728,172.6,481.892,219.9,481.892,219.9Z" transform="translate(-325.45 -111.534)" opacity="0.1"/>
      <path id="Tracé_133" data-name="Tracé 133" d="M482.892,218.9v.312c-5.379-9.843-26.105-47.134-31.775-48.992l2.183-1.5s1.455-.856-1.22-1.712c0,0-4.172.535-4.28-4.493l4.416-4.365,1.078-1.066h0l1.763.826a4.975,4.975,0,0,1,.334.971C472.728,171.6,482.892,218.9,482.892,218.9Z" transform="translate(-326.022 -110.962)" fill="#433a59"/>
      <path id="Tracé_134" data-name="Tracé 134" d="M526.668,218.991l-.034-.051c-2.247-2.889-1.819-17.011-15.834-37.66a77.391,77.391,0,0,0,8.559,5.221l-.989,3.261,2.14,1.143Z" transform="translate(-362.061 -124.8)" opacity="0.1"/>
      <path id="Tracé_135" data-name="Tracé 135" d="M525.668,217.991l-.034-.051c-2.247-2.889-1.819-17.011-15.834-37.66a77.394,77.394,0,0,0,8.559,5.221l-.989,3.261,2.14,1.143Z" transform="translate(-361.489 -124.228)" fill="#433a59"/>
      <path id="Tracé_136" data-name="Tracé 136" d="M507.187,172.58l-.877,3.706a5.015,5.015,0,0,0,4.489,4.031l.621-1.767S507.269,175.888,507.187,172.58Z" transform="translate(-359.493 -119.823)" opacity="0.1"/>
      <path id="Tracé_137" data-name="Tracé 137" d="M507.187,171.58l-.877,3.706a5.015,5.015,0,0,0,4.489,4.031l.621-1.767S507.269,174.888,507.187,171.58Z" transform="translate(-359.493 -119.251)" fill="#e5e8ef"/>
      <path id="Tracé_138" data-name="Tracé 138" d="M325.1,477.57,322.58,534l-2.79-.257V489.523l.736-10.267Z" transform="translate(-182.936 -273.203)" opacity="0.1"/>
      <path id="Tracé_139" data-name="Tracé 139" d="M189.942,499.366l-1.712,30.526,58.2,4.853,2.551-57.174Z" transform="translate(-107.677 -273.203)" fill="#7b728f"/>
      <path id="Tracé_140" data-name="Tracé 140" d="M189.23,500.131l1.138-26.961,59.614,2.739-2.837,28.5Z" transform="translate(-108.249 -270.686)" opacity="0.1"/>
      <path id="Tracé_141" data-name="Tracé 141" d="M188.23,498.131l1.138-26.961,59.613,2.739-2.837,28.5Z" transform="translate(-107.677 -269.542)" fill="#7b728f"/>
      <rect id="Rectangle_96" data-name="Rectangle 96" width="7.168" height="8.345" transform="translate(105.622 228.623)" fill="#c3bbc8"/>
      <path id="Tracé_142" data-name="Tracé 142" d="M409.974,455.78l-1.07,2.889s-2.247,15.834.535,17.76,11.02,2.033,11.448,1.07,3.424-11.876,3.424-11.876,2.675,8.024,4.066,7.382-3.21-15.894-3.21-15.894Z" transform="translate(-303.282 -281.828)" fill="#ffc5d3"/>
      <path id="Tracé_143" data-name="Tracé 143" d="M410.05,420.077v15.3s11.341,2.14,16.262-1.558c0,0-4.6-14.811-2.889-18.556S410.05,420.077,410.05,420.077Z" transform="translate(-304.427 -258.108)" opacity="0.1"/>
      <path id="Tracé_144" data-name="Tracé 144" d="M410.05,419.077v15.3s11.341,2.14,16.262-1.558c0,0-4.6-14.811-2.889-18.556S410.05,419.077,410.05,419.077Z" transform="translate(-304.427 -257.536)" fill="#e5e8ef"/>
      <path id="Tracé_145" data-name="Tracé 145" d="M401.432,208.959l-3,1.6s-.535,6.419-.856,7.275,0,9.522,0,9.522l-.146,17.546s-.462,9.308,0,12.625.98,15.941.98,15.941,2.893,12.3,1.823,16.69.107,14.229,1.926,13.373,18.616-4.173,19.472-4.814.428-6.633,0-7.382-3-10.913-2.782-13.266-.749-23-.749-23,1.6-22.039,2.247-27.175-1.284-20.221-3-20.435S410.633,195.585,401.432,208.959Z" transform="translate(-297.094 -136.966)" opacity="0.1"/>
      <path id="Tracé_146" data-name="Tracé 146" d="M399.432,206.959l-3,1.6s-.535,6.419-.856,7.275,0,9.522,0,9.522l-.146,17.546s-.462,9.308,0,12.625.98,15.941.98,15.941,2.893,12.3,1.823,16.69.107,14.229,1.926,13.373,18.616-4.173,19.472-4.814.428-6.633,0-7.382-3-10.913-2.782-13.266-.749-23-.749-23,1.6-22.039,2.247-27.175-1.284-20.221-3-20.435S408.633,193.585,399.432,206.959Z" transform="translate(-295.95 -135.822)" fill="#5f5570"/>
      <g id="Groupe_12" data-name="Groupe 12" transform="translate(125.603 9.85)" opacity="0.1">
        <path id="Tracé_147" data-name="Tracé 147" d="M466.977,104.77a3.584,3.584,0,0,0-2.568,2.726,15.335,15.335,0,0,0-.24,3.941,25.51,25.51,0,0,1-1.378,8.345l-5.713-11.516c-.111-.227-.227-.462-.338-.7a15.563,15.563,0,0,0,.98,2.3l5.713,11.516a25.51,25.51,0,0,0,1.378-8.345,14.963,14.963,0,0,1,.24-3.941,3.6,3.6,0,0,1,2.568-2.726,17.169,17.169,0,0,1,1.108,2.024A16.686,16.686,0,0,0,466.977,104.77Z" transform="translate(-456.74 -90.883)"/>
        <path id="Tracé_148" data-name="Tracé 148" d="M513.5,72.32a6.059,6.059,0,0,1-.1,3.188,3.778,3.778,0,0,1-.757,1.408c-.971,1.074-2.568,1.2-4.031,1.258l-9.868.368a9.086,9.086,0,0,0-2.358.3c-2.9.894-4.245,3.984-4.352,6.762s-1.712,5.889-4.823,6.133a1.2,1.2,0,0,1-.886-.2h0c.1.278.193.561.274.856a1.412,1.412,0,0,0,.372.757,1.2,1.2,0,0,0,.886.2c3.133-.244,4.707-3.325,4.823-6.133s1.451-5.867,4.352-6.762a9.087,9.087,0,0,1,2.358-.3l9.868-.368c1.447-.056,3.06-.184,4.031-1.258a3.778,3.778,0,0,0,.758-1.408,6.077,6.077,0,0,0-.544-4.8Z" transform="translate(-473.661 -72.32)"/>
      </g>
      <path id="Tracé_149" data-name="Tracé 149" d="M512.28,480.033s3.706-1.926,5.135-1.819,14.264,16.429,14.264,16.429Z" transform="translate(-362.908 -294.659)" opacity="0.1"/>
      <path id="Tracé_150" data-name="Tracé 150" d="M414.63,224.35s-6.774,2.893-6.595,4.891S414.63,224.35,414.63,224.35Z" transform="translate(-303.273 -149.438)" opacity="0.1"/>
      <path id="Tracé_151" data-name="Tracé 151" d="M408.035,246.45s-7.108,9.09-5.538,9.393S408.035,246.45,408.035,246.45Z" transform="translate(-299.977 -162.081)" opacity="0.1"/>
      <path id="Tracé_152" data-name="Tracé 152" d="M465.2,278.28s.65,20.328-4.562,22.9Z" transform="translate(-333.368 -180.289)" opacity="0.1"/>
      <path id="Tracé_153" data-name="Tracé 153" d="M408,401.96s5.016-2.85,6.167-2.281S408,401.96,408,401.96Z" transform="translate(-303.255 -249.693)" opacity="0.1"/>
      <path id="Tracé_154" data-name="Tracé 154" d="M410.05,413.467s3.167.227,4.669-.428S410.05,413.467,410.05,413.467Z" transform="translate(-304.427 -257.257)" opacity="0.1"/>
      <path id="Tracé_155" data-name="Tracé 155" d="M586.7,239.41s3.929,11.285,6.192,11.285" transform="translate(-405.48 -158.053)" opacity="0.1"/>
      <path id="Tracé_156" data-name="Tracé 156" d="M456.16,743.263s7.369-2,8.456,0S456.16,743.263,456.16,743.263Z" transform="translate(-330.805 -445.774)" opacity="0.1"/>
      <path id="Tracé_157" data-name="Tracé 157" d="M400.53,675.21s-1.836,2.812.591,3.667S400.53,675.21,400.53,675.21Z" transform="translate(-298.601 -407.353)" opacity="0.1"/>
      <path id="Tracé_158" data-name="Tracé 158" d="M515.8,583.53s5.563,4.956,8.191,5.1S515.8,583.53,515.8,583.53Z" transform="translate(-364.922 -354.907)" opacity="0.1"/>
      <ellipse id="Ellipse_14" data-name="Ellipse 14" cx="11.525" cy="1.947" rx="11.525" ry="1.947" transform="translate(350.778 307.4)" fill="#6c63ff" opacity="0.1"/>
      <ellipse id="Ellipse_15" data-name="Ellipse 15" cx="11.525" cy="1.947" rx="11.525" ry="1.947" transform="translate(0 278.415)" fill="#6c63ff" opacity="0.1"/>
      <ellipse id="Ellipse_16" data-name="Ellipse 16" cx="11.525" cy="1.947" rx="11.525" ry="1.947" transform="translate(342.758 269.685)" fill="#6c63ff" opacity="0.1"/>
      <ellipse id="Ellipse_17" data-name="Ellipse 17" cx="11.525" cy="1.947" rx="11.525" ry="1.947" transform="translate(44.575 288.861)" fill="#6c63ff" opacity="0.1"/>
      <ellipse id="Ellipse_18" data-name="Ellipse 18" cx="11.525" cy="1.947" rx="11.525" ry="1.947" transform="translate(291.387 290.535)" fill="#6c63ff" opacity="0.1"/>
      <ellipse id="Ellipse_19" data-name="Ellipse 19" cx="17.208" cy="2.91" rx="17.208" ry="2.91" transform="translate(319.872 327.304)" fill="#6c63ff"/>
      <path id="Tracé_161" data-name="Tracé 161" d="M946.248,799.2a5,5,0,0,0,1.639-2.474,2.207,2.207,0,0,0-1.147-2.521c-1.053-.4-2.178.325-3.03,1.061s-1.832,1.579-2.949,1.425a4.493,4.493,0,0,0,1.391-4.2,1.768,1.768,0,0,0-.389-.856c-.582-.625-1.643-.355-2.341.137-2.225,1.566-2.846,4.588-2.859,7.309a14.019,14.019,0,0,1-.043-3,3.087,3.087,0,0,0-1.13-2.662,3.423,3.423,0,0,0-1.712-.407,3.566,3.566,0,0,0-2.795.8,2.758,2.758,0,0,0,.107,3.424,11.068,11.068,0,0,0,2.9,2.319,6.372,6.372,0,0,1,2.067,1.973,1.636,1.636,0,0,1,.154.351h6.274A17.5,17.5,0,0,0,946.248,799.2Z" transform="translate(-602.056 -473.745)" fill="#6c63ff"/>
      <path id="Tracé_162" data-name="Tracé 162" d="M287.069,617s2.354,3.073-1.083,7.7-6.269,8.559-5.135,11.452c0,0,5.187-8.619,9.415-8.739S291.712,622.2,287.069,617Z" transform="translate(-230.374 -374.054)" fill="#6c63ff"/>
      <path id="Tracé_163" data-name="Tracé 163" d="M287.254,617a3.7,3.7,0,0,1,.479.963c4.117,4.836,6.312,9.351,2.354,9.466-3.685.1-8.105,6.693-9.167,8.358a3.969,3.969,0,0,0,.124.381s5.187-8.619,9.415-8.739S291.9,622.2,287.254,617Z" transform="translate(-230.559 -374.054)" opacity="0.1"/>
      <path id="Tracé_164" data-name="Tracé 164" d="M305.209,625.243c0,1.083-.12,1.96-.27,1.96s-.27-.856-.27-1.96.15-.574.3-.574S305.209,624.16,305.209,625.243Z" transform="translate(-244.145 -378.368)" fill="#ffd037"/>
      <path id="Tracé_165" data-name="Tracé 165" d="M306.963,628.211c-.95.518-1.78.83-1.849.7s.638-.659,1.588-1.177.578-.141.646,0S307.913,627.7,306.963,628.211Z" transform="translate(-244.396 -380.044)" fill="#ffd037"/>
      <path id="Tracé_166" data-name="Tracé 166" d="M259.648,617s-2.354,3.073,1.083,7.7,6.269,8.559,5.135,11.452c0,0-5.182-8.619-9.415-8.739S255,622.2,259.648,617Z" transform="translate(-215.368 -374.054)" fill="#6c63ff"/>
      <path id="Tracé_167" data-name="Tracé 167" d="M259.635,617a3.775,3.775,0,0,0-.484.963c-4.117,4.836-6.308,9.351-2.354,9.466,3.689.1,8.11,6.693,9.171,8.358a3.061,3.061,0,0,1-.128.381s-5.182-8.619-9.415-8.739S254.992,622.2,259.635,617Z" transform="translate(-215.355 -374.054)" opacity="0.1"/>
      <path id="Tracé_168" data-name="Tracé 168" d="M256.49,625.243c0,1.083.124,1.96.274,1.96s.27-.856.27-1.96-.15-.574-.3-.574S256.49,624.16,256.49,625.243Z" transform="translate(-216.584 -378.368)" fill="#ffd037"/>
      <path id="Tracé_169" data-name="Tracé 169" d="M252.224,628.211c.95.518,1.776.83,1.849.7s-.642-.659-1.592-1.177-.573-.141-.646,0S251.269,627.7,252.224,628.211Z" transform="translate(-213.811 -380.044)" fill="#ffd037"/>
      <path id="Tracé_170" data-name="Tracé 170" d="M258.24,656.133s6.573-.2,8.559-1.613,10.112-3.094,10.6-.83S287.281,664.94,279.86,665s-17.246-1.155-19.224-2.362S258.24,656.133,258.24,656.133Z" transform="translate(-217.585 -394.408)" fill="#a8a8a8"/>
      <path id="Tracé_171" data-name="Tracé 171" d="M279.988,668.948c-7.421.06-17.246-1.155-19.224-2.362-1.5-.916-2.106-4.207-2.307-5.726h-.218s.428,5.3,2.392,6.5,11.8,2.422,19.224,2.362c2.14,0,2.88-.779,2.842-1.909C282.4,668.507,281.58,668.935,279.988,668.948Z" transform="translate(-217.585 -399.144)" opacity="0.2"/>
    </g>
    <path id="Tracé_173" data-name="Tracé 173" d="M867.995,335.176s7.722,16.3,12.871,18.019L866.279,375.5l-12.013-14.587s.858-10.3-1.716-14.587S867.995,335.176,867.995,335.176Z" transform="translate(132.634 1227.812)" fill="#fbbebe"/>
    <circle id="Ellipse_20" data-name="Ellipse 20" cx="16.303" cy="16.303" r="16.303" transform="translate(972.313 1544.968)" fill="#fbbebe"/>
    <path id="Tracé_174" data-name="Tracé 174" d="M671.817,317.557l4.29,12.013,5.148-6.007-4.321-13.683Z" transform="translate(294.489 1360.411)" fill="#fbbebe"/>
    <path id="Tracé_175" data-name="Tracé 175" d="M842.57,477.867s-5.148,21.451-2.574,31.748,10.3,80.658,10.3,80.658l5.148,55.774,20.593,1.716L873.46,582.55l2.574-56.632,14.587,54.916v66.929l24.884.858-2.574-86.664s1.716-66.929-9.439-75.509-12.871-10.3-12.871-10.3Z" transform="translate(135.748 1194.094)" fill="#2f2e41"/>
    <path id="Tracé_176" data-name="Tracé 176" d="M864.091,698.327l-1.716,6.006-2.574,7.723s-7.723,15.445,5.148,12.871,11.155-8.581,11.155-8.581,4.29-2.574,3.432-3.432-.858-13.729-.858-13.729Z" transform="translate(131.389 1140.956)" fill="#2f2e41"/>
    <path id="Tracé_177" data-name="Tracé 177" d="M926.683,698.327l1.716,6.006,2.574,7.723s7.723,15.445-5.148,12.871-11.155-8.581-11.155-8.581-4.29-2.574-3.432-3.432.858-13.729.858-13.729Z" transform="translate(118.564 1140.956)" fill="#2f2e41"/>
    <path id="Tracé_178" data-name="Tracé 178" d="M863.12,369.794l10.495-15.445,19.537,10.3,2.574,89.238s-11.155-6.864-28.316,1.716-28.316,2.574-28.316,2.574l10.3-38.613-4.29-51.484,6.136-5.57Z" transform="translate(135.791 1223.226)" fill="#e6e6e6"/>
    <path id="Tracé_179" data-name="Tracé 179" d="M846.655,362.93l-3.564,2.9s-22.31,11.155-23.168,18.877l15.445,42.045s4.29,9.439.858,12.871-6.864,12.013-6.006,16.3-5.148,22.31,1.716,22.31,23.168-41.187,22.309-57.49S852.793,361.743,846.655,362.93Z" transform="translate(140.377 1221.179)" fill="#2f2e41"/>
    <path id="Tracé_180" data-name="Tracé 180" d="M826.48,384.8l-5.289.566s-5.008,3.725-5.008,12.305-.858,34.322-.858,34.322-1.716,12.871,3.432,22.31,6.006,12.013,6.006,12.013l8.581-10.3V434.566l3.432-13.729Z" transform="translate(141.542 1215.943)" fill="#2f2e41"/>
    <path id="Tracé_181" data-name="Tracé 181" d="M880.993,349.709l8.388,3.53s29.174,7.723,33.464,20.593l-12.013,30.032s8.581,54.916,6.006,54.916h-2.574s6.864,5.148,2.574,6.865-14.587,15.445-17.161,9.439-18.019-77.226-16.3-92.67S879.469,351.327,880.993,349.709Z" transform="translate(125.834 1224.336)" fill="#2f2e41"/>
    <path id="Tracé_182" data-name="Tracé 182" d="M856.7,304.224v-1.716h-4.29s-6.865-4.29-12.871.858-8.581,7.723-8.581,7.723l-2.574,3.432,2.574.858-2.574,2.574h2.574l-1.716,2.574,4.81,6.435s-.519-6.435,4.629-6.435,11.155-6.864,11.155-6.864L862.7,323.1s-.858-5.124,2.145-5.136C864.848,317.964,866.136,305.081,856.7,304.224Z" transform="translate(138.354 1236.026)" fill="#2f2e41"/>
    <path id="Tracé_183" data-name="Tracé 183" d="M939,486.3l-1.716,18.019s0,26.6-9.439,24.026-1.716-24.884-1.716-24.884l1.3-16.137Z" transform="translate(115.687 1191.667)" fill="#fbbebe"/>
    <path id="Tracé_184" data-name="Tracé 184" d="M918.63,375.561s11.155-4.29,14.587,8.581,7.723,38.613,7.723,38.613a38.612,38.612,0,0,1,0,28.316l-2.574,12.871-14.587-1.716-3.432-29.174-3.433-36.9Z" transform="translate(117.18 1218.317)" fill="#2f2e41"/>
  </g>
</svg>
