<svg xmlns="http://www.w3.org/2000/svg" width="642.299" height="536.435" viewBox="0 0 642.299 536.435">
  <g id="Groupe_27" data-name="Groupe 27" transform="translate(0)">
    <path id="Tracé_543" data-name="Tracé 543" d="M668.587,602.808H338.627c-87.45-19.367-158.866-86.07-158.866-185.82a207.716,207.716,0,0,1,4.865-44.87l265.962-42.841,205.173-33.046a366.938,366.938,0,0,1,41.97,31.991l-196.39,74.914L408.7,438.478l104.043-25.86,215.947-53.671a368.342,368.342,0,0,1,35.654,46.918l-65.3,48.825,73.783-34.923q.468.808.933,1.618C820.043,502.166,761.692,602.808,668.587,602.808Z" transform="translate(-179.761 -145.525)" fill="#f2f2f2"/>
    <path id="Tracé_544" data-name="Tracé 544" d="M617.816,255.149c-49.945,10.316-111.35,23.354-174.486,36.907-91.285,19.6-186.182,40.291-255.271,55.415q2.29-8.958,5.33-17.547A366.155,366.155,0,0,1,394.86,223.412h.006a369.337,369.337,0,0,1,62.213-5.253,365.487,365.487,0,0,1,160.736,36.99Z" transform="translate(-181.718 -127.116)" fill="#f2f2f2"/>
    <circle id="Ellipse_58" data-name="Ellipse 58" cx="53.411" cy="53.411" r="53.411" transform="translate(34.862 38.739)" fill="#ff6584"/>
    <path id="Tracé_545" data-name="Tracé 545" d="M667.96,582.08c-32.868,31.488-143,32.824-318.629,2.118q-5.39-.944-10.7-2.118c-87.449-19.367-158.866-86.07-158.866-185.82a207.716,207.716,0,0,1,4.865-44.87q.687-3.139,1.476-6.239,2.29-8.958,5.33-17.547c24.741-69.839,86.108-119.282,157.9-119.282,17.833,0,31.9,4.726,43.572,12.771h.006c21.287,14.666,34.643,40.373,48.463,68.643,3.021,6.176,6.061,12.478,9.216,18.813,13.006,26.121,27.869,52.807,50.753,73.859a144.335,144.335,0,0,0,11.4,9.483q3,2.251,6.163,4.369C655.52,487.672,701.166,550.26,667.96,582.08Z" transform="translate(-179.761 -124.796)" fill="#3f3d56"/>
    <ellipse id="Ellipse_59" data-name="Ellipse 59" cx="56.922" cy="9.609" rx="56.922" ry="9.609" transform="translate(321.131 416.726)" opacity="0.1"/>
    <ellipse id="Ellipse_60" data-name="Ellipse 60" cx="56.922" cy="9.609" rx="56.922" ry="9.609" transform="translate(15.216 309.878)" opacity="0.1"/>
    <path id="Tracé_546" data-name="Tracé 546" d="M281.5,473.929c-9.4,12.295-8.326,28.911-8.326,28.911s16.317-3.318,25.718-15.613,8.326-28.911,8.326-28.911S290.9,461.634,281.5,473.929Z" transform="translate(-201.779 -183.743)" fill="#d0cde1"/>
    <path id="Tracé_547" data-name="Tracé 547" d="M285.364,473.375c-1.824,15.369-14.174,26.538-14.174,26.538s-9.392-13.75-7.567-29.119S277.8,444.256,277.8,444.256,287.188,458.006,285.364,473.375Z" transform="translate(-199.48 -180.428)" fill="#6c63ff"/>
    <ellipse id="Ellipse_61" data-name="Ellipse 61" cx="48.677" cy="8.217" rx="48.677" ry="8.217" transform="translate(183.096 374.079)" opacity="0.1"/>
    <path id="Tracé_548" data-name="Tracé 548" d="M489.329,562.368c-8.039,10.514-7.12,24.724-7.12,24.724s13.954-2.837,21.993-13.351,7.12-24.724,7.12-24.724S497.369,551.854,489.329,562.368Z" transform="translate(-251.069 -205.13)" fill="#d0cde1"/>
    <path id="Tracé_549" data-name="Tracé 549" d="M492.631,561.895c-1.56,13.143-12.121,22.694-12.121,22.694s-8.031-11.758-6.471-24.9,12.121-22.694,12.121-22.694S494.192,548.752,492.631,561.895Z" transform="translate(-249.103 -202.295)" fill="#6c63ff"/>
    <path id="Tracé_550" data-name="Tracé 550" d="M727.681,525.328c.026,53.35-31.681,71.991-70.8,72.01q-1.363,0-2.713-.029-2.72-.057-5.383-.245c-35.309-2.483-62.752-22.051-62.776-71.667-.025-51.346,65.567-116.176,70.487-120.969,0,0,0,0,.009,0,.187-.183.283-.274.283-.274S727.655,471.982,727.681,525.328Z" transform="translate(-275.552 -170.971)" fill="#6c63ff"/>
    <path id="Tracé_551" data-name="Tracé 551" d="M666.569,589.179l25.89-36.211-25.954,40.185-.068,4.156q-2.72-.057-5.383-.245l2.765-53.373-.022-.413.048-.078.263-5.043L638.052,497.9l26.134,36.482.066,1.069,2.089-40.326L644.03,453.516l22.581,34.518,2.155-83.607.009-.278v.274l-.333,65.933,22.173-26.149-22.267,31.827-.569,36.108,20.708-34.661L667.7,517.451l-.316,20.078,30.054-48.248-30.168,55.252Z" transform="translate(-287.823 -170.971)" fill="#3f3d56"/>
    <ellipse id="Ellipse_62" data-name="Ellipse 62" cx="74.288" cy="12.541" rx="74.288" ry="12.541" transform="translate(75.725 239.546)" opacity="0.1"/>
    <path id="Tracé_552" data-name="Tracé 552" d="M445.517,257.174c.034,69.627-41.347,93.955-92.4,93.979q-1.779,0-3.541-.038-3.549-.075-7.025-.32c-46.081-3.24-81.9-28.779-81.928-93.531-.033-67.011,85.571-151.619,91.991-157.875.006,0,.006,0,.011-.006.244-.238.369-.358.369-.358S445.483,187.552,445.517,257.174Z" transform="translate(-198.827 -99.025)" fill="#6c63ff"/>
    <path id="Tracé_553" data-name="Tracé 553" d="M365.761,340.5l33.789-47.259-33.872,52.445-.088,5.424q-3.549-.075-7.025-.32l3.609-69.657-.029-.539.062-.1.343-6.582-34.008-52.543,34.107,47.612.086,1.4,2.726-52.629-29.118-54.3,29.47,45.049,2.813-109.114.011-.363v.357l-.435,86.048L397.143,151.3l-29.06,41.537-.743,47.124,27.026-45.236-27.131,52.164-.413,26.2,39.223-62.967-39.372,72.109Z" transform="translate(-214.843 -99.025)" fill="#3f3d56"/>
    <circle id="Ellipse_63" data-name="Ellipse 63" cx="51.159" cy="51.159" r="51.159" transform="translate(492.399 112.663)" fill="#2f2e41"/>
    <path id="Tracé_554" data-name="Tracé 554" d="M949.13,664.968C933.8,708.023,904.9,745.179,904.9,745.179H834.124l9.491-19.48,4.753-9.751,6.87-14.1,3.378-6.931,9.125-18.738-13.626,18.173-5.884,7.841-11.157,14.887-9.308,12.411a639.605,639.605,0,0,1-90.65,13c-.115-3.592.458-10.653,5.021-20.473a89.424,89.424,0,0,1,8.689-14.612,133.379,133.379,0,0,1,10.164-12.357c2.017-2.186,4.142-4.417,6.335-6.672,28.551-29.353,69.749-62.917,69.749-62.917l-11.792-46.594,84.873-14.413a7.655,7.655,0,0,1,8.918,6.977c.459,6.152,2.079,14.061,7.061,18.051C934.977,596.556,964.468,621.92,949.13,664.968Z" transform="translate(-311.179 -208.744)" fill="#2f2e41"/>
    <path id="Tracé_555" data-name="Tracé 555" d="M815.238,747.067a1.588,1.588,0,0,1-.069.458c-1.192,4.547-19.6,12.716-49.406,20.42-4.975,1.276-10.271,2.545-15.85,3.79a639.608,639.608,0,0,1-90.65,13c-15.452,1.123-31.585,1.765-48.183,1.765C500.033,786.5,409.7,757.789,407,747.525a1.587,1.587,0,0,1-.069-.458,1.253,1.253,0,0,1,.031-.29.663.663,0,0,1,.046-.176c2.957-8.918,93.187,4.287,204.074,4.287,21.574,0,42.375-.5,61.893-1.238,38.768-1.475,72.523-3.89,97.406-5.212,2.423-.122,4.761-.245,7.008-.344,22.827-1.078,36.651-.894,37.775,2.507a.66.66,0,0,1,.046.176,1.249,1.249,0,0,1,.031.29Z" transform="translate(-233.326 -250.989)" fill="#3f3d56"/>
    <path id="Tracé_556" data-name="Tracé 556" d="M815.238,747.067a1.588,1.588,0,0,1-.069.458c-1.192,4.547-19.6,12.716-49.406,20.42-4.975,1.276-10.271,2.545-15.85,3.79a639.608,639.608,0,0,1-90.65,13c-15.452,1.123-31.585,1.765-48.183,1.765C500.033,786.5,409.7,757.789,407,747.525a1.587,1.587,0,0,1-.069-.458,1.253,1.253,0,0,1,.031-.29.663.663,0,0,1,.046-.176c2.957-8.918,93.187,4.287,204.074,4.287,21.574,0,42.375-.5,61.893-1.238,38.768-1.475,72.523-3.89,97.406-5.212,2.423-.122,4.761-.245,7.008-.344,22.827-1.078,36.651-.894,37.775,2.507a.66.66,0,0,1,.046.176,1.249,1.249,0,0,1,.031.29Z" transform="translate(-233.326 -250.989)" opacity="0.1"/>
    <ellipse id="Ellipse_64" data-name="Ellipse 64" cx="204.156" cy="17.808" rx="204.156" ry="17.808" transform="translate(173.603 478.271)" fill="#3f3d56"/>
    <ellipse id="Ellipse_65" data-name="Ellipse 65" cx="34.389" cy="7.642" rx="34.389" ry="7.642" transform="translate(464.24 490.904)" opacity="0.1"/>
    <ellipse id="Ellipse_66" data-name="Ellipse 66" cx="18.341" cy="3.057" rx="18.341" ry="3.057" transform="translate(480.288 492.432)" fill="#6c63ff"/>
    <path id="Tracé_557" data-name="Tracé 557" d="M844.533,703.1s-37.775,29.384-24.21,32.333,35.387-29.489,35.387-29.489Z" transform="translate(-330.108 -241.462)" fill="#a0616a"/>
    <circle id="Ellipse_67" data-name="Ellipse 67" cx="33.617" cy="33.617" r="33.617" transform="translate(500.831 148.952)" fill="#a0616a"/>
    <path id="Tracé_558" data-name="Tracé 558" d="M870.558,371.643s11.8,30.079,2.359,35.387-14.155,5.9-14.155,5.9l-10.026,17.1-5.9,17.693,47.182,1.769L923.049,397s-15.924-8.257-24.181-43.644Z" transform="translate(-336.11 -158.995)" fill="#a0616a"/>
    <path id="Tracé_559" data-name="Tracé 559" d="M928.8,410.746s-6-3.941-11.552-2.561a42.923,42.923,0,0,0-7.911,2.56s-30.669,41.874-47.182,43.054c0,0-21.822,5.9-16.514-2.949s16.939-27.467,16.939-27.467-21.067,5.055-21.067,12.133-4.128,20.053-4.128,20.053-20.053,20.052,0,43.644,12.385,44.823,12.385,44.823l88.467-15.924Z" transform="translate(-332.724 -171.854)" fill="#d0cde1"/>
    <path id="Tracé_560" data-name="Tracé 560" d="M836.184,508.868l-5.308,81.39,5.308,75.492s21.822,4.718,27.13,0-11.205-126.8-11.205-126.8Z" transform="translate(-333.29 -195.663)" fill="#d0cde1"/>
    <circle id="Ellipse_68" data-name="Ellipse 68" cx="21.169" cy="21.169" r="21.169" transform="translate(543.586 96.132)" fill="#2f2e41"/>
    <path id="Tracé_561" data-name="Tracé 561" d="M880.474,230.982a21.171,21.171,0,0,1,18.963-21.055,21.4,21.4,0,0,0-2.2-.115,21.169,21.169,0,0,0,0,42.339,21.4,21.4,0,0,0,2.205-.114,21.172,21.172,0,0,1-18.964-21.055Z" transform="translate(-343.945 -125.148)" fill="#2f2e41"/>
    <ellipse id="Ellipse_69" data-name="Ellipse 69" cx="21.169" cy="35.282" rx="21.169" ry="35.282" transform="matrix(0.257, -0.966, 0.966, 0.257, 498.413, 175.045)" fill="#2f2e41"/>
    <path id="Tracé_562" data-name="Tracé 562" d="M866.142,709.276s-37.775,29.384-24.21,32.333,35.387-29.489,35.387-29.489Z" transform="translate(-335.203 -242.918)" fill="#a0616a"/>
    <path id="Tracé_563" data-name="Tracé 563" d="M922.374,414.724s16.514-14.155,24.181,5.308-4.128,115.6-4.128,115.6L885.807,650.047s-27.13,1.18-21.232-18.283S910.283,520.59,912.642,518.23,922.374,414.724,922.374,414.724Z" transform="translate(-341.038 -172.292)" fill="#d0cde1"/>
    <path id="Tracé_564" data-name="Tracé 564" d="M842.459,530.232s13.015,27.6,11.961,34.978S842.459,530.232,842.459,530.232Z" transform="translate(-336.021 -200.7)" opacity="0.1"/>
    <ellipse id="Ellipse_70" data-name="Ellipse 70" cx="2.949" cy="5.898" rx="2.949" ry="5.898" transform="translate(567.476 174.901)" fill="#a0616a"/>
    <ellipse id="Ellipse_71" data-name="Ellipse 71" cx="34.389" cy="7.642" rx="34.389" ry="7.642" transform="translate(252.554 490.904)" opacity="0.1"/>
    <circle id="Ellipse_72" data-name="Ellipse 72" cx="18.341" cy="18.341" r="18.341" transform="translate(268.603 461.864)" fill="#6c63ff"/>
    <ellipse id="Ellipse_73" data-name="Ellipse 73" cx="34.389" cy="7.642" rx="34.389" ry="7.642" transform="translate(350.373 490.904)" opacity="0.1"/>
    <circle id="Ellipse_74" data-name="Ellipse 74" cx="18.341" cy="18.341" r="18.341" transform="translate(366.421 461.864)" fill="#6c63ff"/>
    <rect id="Rectangle_148" data-name="Rectangle 148" width="4.585" height="22.926" transform="translate(284.468 468.44)" fill="#d0cde1"/>
    <rect id="Rectangle_149" data-name="Rectangle 149" width="4.585" height="22.926" transform="translate(378.465 468.44)" fill="#d0cde1"/>
    <rect id="Rectangle_150" data-name="Rectangle 150" width="4.585" height="22.926" transform="translate(385.343 468.44)" fill="#d0cde1"/>
  </g>
</svg>
