<svg xmlns="http://www.w3.org/2000/svg" xmlns:xlink="http://www.w3.org/1999/xlink" width="668" height="557.687" viewBox="0 0 668 557.687">
  <defs>
    <linearGradient id="linear-gradient" x1="0.5" y1="1" x2="0.5" gradientUnits="objectBoundingBox">
      <stop offset="0" stop-color="gray" stop-opacity="0.251"/>
      <stop offset="0.54" stop-color="gray" stop-opacity="0.122"/>
      <stop offset="1" stop-color="gray" stop-opacity="0.102"/>
    </linearGradient>
  </defs>
  <g id="Groupe_34" data-name="Groupe 34" transform="translate(0 0.003)">
    <path id="Tracé_117" data-name="Tracé 117" d="M336.279,52.843c19.533-17.386,50.193-20.95,78.1-19.566,87.66,4.36,166.788,46.675,235.236,94.548,24.782,17.326,49.176,36,65.259,59.869,32.766,48.581,23.03,115.879-22.5,155.9-15.494,13.615-34.271,24.073-53.55,33.308-34.278,16.45-71.264,29.657-110.169,33.435-27.738,2.675-55.823.5-83.407-3.237C368.2,396.629,292.58,373.519,229.167,333.985c-27.8-17.339-54.011-38.9-65.473-66.937s-4.126-63.614,24.267-80.244c11.742-6.868,25.785-9.97,39.527-12.886,20.235-4.286,40.791-8.513,59.046-17.226,18.864-9,41.192-26.407,37.447-46.334C320,89.006,316.773,70.229,336.279,52.843Z" transform="translate(-119.734 -33.01)" fill="#6c63ff" opacity="0.1"/>
    <path id="Tracé_118" data-name="Tracé 118" d="M785.47,666.385s16.758-29.684,41.988-38.236a51.651,51.651,0,0,0,26.16-19.566,86.625,86.625,0,0,0,7.717-13.882" transform="translate(-327.442 -219.098)" fill="none" stroke="#535461" stroke-miterlimit="10" stroke-width="2"/>
    <path id="Tracé_119" data-name="Tracé 119" d="M914.6,580.316c-2.875,2.8-16.27,5.677-16.27,5.677s3.283-13.3,6.159-16.089A7.257,7.257,0,1,1,914.6,580.316Z" transform="translate(-364.833 -210.204)" fill="#6c63ff"/>
    <path id="Tracé_120" data-name="Tracé 120" d="M903.048,615.357c-3.932.782-16.718-4.072-16.718-4.072s9.99-9.362,13.916-10.164a7.257,7.257,0,1,1,2.829,14.237Z" transform="translate(-360.857 -221.178)" fill="#6c63ff"/>
    <path id="Tracé_121" data-name="Tracé 121" d="M863.938,654.466c-3.792-1.337-12.4-11.97-12.4-11.97s13.374-3.049,17.146-1.739a7.255,7.255,0,1,1-4.748,13.708Z" transform="translate(-349.331 -234.248)" fill="#6c63ff"/>
    <path id="Tracé_122" data-name="Tracé 122" d="M825.177,676.739c-3.952-.669-14.237-9.7-14.237-9.7s12.645-5.269,16.6-4.614a7.255,7.255,0,1,1-2.361,14.317Z" transform="translate(-335.881 -241.515)" fill="#6c63ff"/>
    <path id="Tracé_123" data-name="Tracé 123" d="M869.59,597.259c0,4.012,7.249,15.628,7.249,15.628s7.262-11.615,7.262-15.621a7.255,7.255,0,0,0-14.511,0Z" transform="translate(-355.311 -217.544)" fill="#6c63ff"/>
    <path id="Tracé_124" data-name="Tracé 124" d="M825.495,622.979c1.2,3.825,11.6,12.745,11.6,12.745s3.451-13.26,2.254-17.085a7.256,7.256,0,0,0-13.849,4.34Z" transform="translate(-340.592 -225.343)" fill="#6c63ff"/>
    <path id="Tracé_125" data-name="Tracé 125" d="M786.508,655.476c.535,3.972,9.275,14.524,9.275,14.524s5.644-12.485,5.109-16.457a7.257,7.257,0,1,0-14.384,1.933Z" transform="translate(-327.765 -236.508)" fill="#6c63ff"/>
    <path id="Tracé_126" data-name="Tracé 126" d="M914.6,580.316c-2.875,2.8-16.27,5.677-16.27,5.677s3.283-13.3,6.159-16.089A7.257,7.257,0,1,1,914.6,580.316Z" transform="translate(-364.833 -210.204)" opacity="0.25"/>
    <path id="Tracé_127" data-name="Tracé 127" d="M903.048,615.357c-3.932.782-16.718-4.072-16.718-4.072s9.99-9.362,13.916-10.164a7.257,7.257,0,1,1,2.829,14.237Z" transform="translate(-360.857 -221.178)" opacity="0.25"/>
    <path id="Tracé_128" data-name="Tracé 128" d="M863.938,654.466c-3.792-1.337-12.4-11.97-12.4-11.97s13.374-3.049,17.146-1.739a7.255,7.255,0,1,1-4.748,13.708Z" transform="translate(-349.331 -234.248)" opacity="0.25"/>
    <path id="Tracé_129" data-name="Tracé 129" d="M825.177,676.739c-3.952-.669-14.237-9.7-14.237-9.7s12.645-5.269,16.6-4.614a7.255,7.255,0,1,1-2.361,14.317Z" transform="translate(-335.881 -241.515)" opacity="0.25"/>
    <path id="Tracé_130" data-name="Tracé 130" d="M869.59,597.259c0,4.012,7.249,15.628,7.249,15.628s7.262-11.615,7.262-15.621a7.255,7.255,0,0,0-14.511,0Z" transform="translate(-355.311 -217.544)" opacity="0.25"/>
    <path id="Tracé_131" data-name="Tracé 131" d="M825.495,622.979c1.2,3.825,11.6,12.745,11.6,12.745s3.451-13.26,2.254-17.085a7.256,7.256,0,0,0-13.849,4.34Z" transform="translate(-340.592 -225.343)" opacity="0.25"/>
    <path id="Tracé_132" data-name="Tracé 132" d="M786.508,655.476c.535,3.972,9.275,14.524,9.275,14.524s5.644-12.485,5.109-16.457a7.257,7.257,0,1,0-14.384,1.933Z" transform="translate(-327.765 -236.508)" opacity="0.25"/>
    <path id="Tracé_133" data-name="Tracé 133" d="M786.91,653.293s3.29-33.93,22.9-51.971a51.651,51.651,0,0,0,15.982-28.493A86.359,86.359,0,0,0,827.219,557" transform="translate(-327.92 -206.608)" fill="none" stroke="#535461" stroke-miterlimit="10" stroke-width="2"/>
    <path id="Tracé_134" data-name="Tracé 134" d="M858.649,534.9c-1.5,3.718-12.572,11.783-12.572,11.783s-2.381-13.494-.883-17.206a7.255,7.255,0,1,1,13.454,5.423Z" transform="translate(-347.065 -195.927)" fill="#6c63ff"/>
    <path id="Tracé_135" data-name="Tracé 135" d="M861.388,570.874c-3.277,2.307-16.958,3.056-16.958,3.056s5.35-12.618,8.606-14.925a7.257,7.257,0,0,1,8.352,11.869Z" transform="translate(-346.976 -206.834)" fill="#6c63ff"/>
    <path id="Tracé_136" data-name="Tracé 136" d="M839.843,622.551c-4.012.334-16.182-5.925-16.182-5.925s10.973-8.2,14.939-8.539a7.258,7.258,0,1,1,1.217,14.464Z" transform="translate(-340.095 -223.524)" fill="#6c63ff"/>
    <path id="Tracé_137" data-name="Tracé 137" d="M813.955,658.5c-3.878,1-16.945-3.1-16.945-3.1s9.422-9.944,13.3-10.947a7.255,7.255,0,1,1,3.645,14.044Z" transform="translate(-331.266 -235.503)" fill="#6c63ff"/>
    <path id="Tracé_138" data-name="Tracé 138" d="M822.561,569.5c1.618,3.664,12.959,11.368,12.959,11.368s1.933-13.561.308-17.226a7.255,7.255,0,1,0-13.268,5.872Z" transform="translate(-339.524 -207.376)" fill="#6c63ff"/>
    <path id="Tracé_139" data-name="Tracé 139" d="M792.675,610.883c2.641,3.009,15.761,6.955,15.761,6.955s-2.213-13.521-4.861-16.53a7.255,7.255,0,1,0-10.9,9.577Z" transform="translate(-329.231 -220.469)" fill="#6c63ff"/>
    <path id="Tracé_140" data-name="Tracé 140" d="M770.194,656.393c2.1,3.417,14.364,9.516,14.364,9.516s.1-13.7-2.006-17.112a7.256,7.256,0,1,0-12.364,7.6Z" transform="translate(-322.023 -235.874)" fill="#6c63ff"/>
    <ellipse id="Ellipse_41" data-name="Ellipse 41" cx="79.495" cy="13.327" rx="79.495" ry="13.327" transform="translate(170.713 531.029)" fill="#6c63ff" opacity="0.1"/>
    <ellipse id="Ellipse_42" data-name="Ellipse 42" cx="79.495" cy="13.327" rx="79.495" ry="13.327" transform="translate(327.183 428.724)" fill="#6c63ff" opacity="0.1"/>
    <path id="Tracé_141" data-name="Tracé 141" d="M610.01,397.831l-.074,2.6-4.52,159.5h-7.6l3.725-159.5.074-3Z" transform="translate(-198.056 -131.669)" fill="#b77b7f"/>
    <path id="Tracé_142" data-name="Tracé 142" d="M634.878,596.326l-5.691-.013-84.551-.181-4.507-.007,2.4-7.4h91.746Z" transform="translate(-178.944 -195.046)" fill="#dda2a6"/>
    <path id="Tracé_143" data-name="Tracé 143" d="M611.856,397.831l-.074,2.6H603.39l.074-3Z" transform="translate(-199.902 -131.669)" opacity="0.1"/>
    <rect id="Rectangle_77" data-name="Rectangle 77" width="14.09" height="5.303" transform="translate(401.067 262.264)" fill="#b77b7f"/>
    <path id="Tracé_144" data-name="Tracé 144" d="M545.386,588.73l-.749,7.4-4.507-.007,2.4-7.4Z" transform="translate(-178.944 -195.046)" opacity="0.1"/>
    <path id="Tracé_145" data-name="Tracé 145" d="M552.474,392.05l-.234,2.3L533.483,579.34l-8.593-.408L544.657,394.35l.221-2.1Z" transform="translate(-173.895 -129.886)" fill="#dda2a6"/>
    <path id="Tracé_146" data-name="Tracé 146" d="M678.62,596.326l-5.691-.013-.769-7.583h5.858Z" transform="translate(-222.685 -195.046)" opacity="0.1"/>
    <path id="Tracé_147" data-name="Tracé 147" d="M681.6,578.932l-8.6.408-18.75-184.99-.234-2.3,7.59.2.221,2.1Z" transform="translate(-216.675 -129.886)" fill="#dda2a6"/>
    <rect id="Rectangle_78" data-name="Rectangle 78" width="189.483" height="181.686" transform="translate(312.016 79.775)" fill="#fff"/>
    <path id="Tracé_148" data-name="Tracé 148" d="M710.668,59.53V103.4h-7.389V59.53a3.7,3.7,0,1,1,7.389,0Z" transform="translate(-300.211 -40.52)" fill="#dda2a6"/>
    <rect id="Rectangle_79" data-name="Rectangle 79" width="7.396" height="3.992" transform="translate(403.06 58.891)" opacity="0.1"/>
    <path id="Tracé_149" data-name="Tracé 149" d="M712.153,124.669v14.484H699V124.669a1.792,1.792,0,0,1,1.8-1.8h9.569A1.8,1.8,0,0,1,712.153,124.669Z" transform="translate(-298.795 -62.782)" fill="#dda2a6"/>
    <circle id="Ellipse_43" data-name="Ellipse 43" cx="2.795" cy="2.795" r="2.795" transform="translate(403.963 66.488)" opacity="0.1"/>
    <circle id="Ellipse_44" data-name="Ellipse 44" cx="2.795" cy="2.795" r="2.795" transform="translate(403.963 65.886)" fill="#b77b7f"/>
    <rect id="Rectangle_80" data-name="Rectangle 80" width="13.193" height="1.799" transform="translate(400.165 74.579)" opacity="0.1"/>
    <rect id="Rectangle_81" data-name="Rectangle 81" width="23.986" height="3.999" transform="translate(394.768 76.98)" opacity="0.1"/>
    <rect id="Rectangle_82" data-name="Rectangle 82" width="23.986" height="3.999" transform="translate(394.768 75.776)" fill="#dda2a6"/>
    <path id="Tracé_150" data-name="Tracé 150" d="M533.567,384h100.74a4.347,4.347,0,0,1,4.347,4.347v.95H529.22v-.95A4.347,4.347,0,0,1,533.567,384Z" transform="translate(-175.329 -127.22)" opacity="0.1"/>
    <path id="Tracé_151" data-name="Tracé 151" d="M554.671,392.251l7.6-.2-.234,2.3H554.45Z" transform="translate(-183.688 -129.886)" opacity="0.1"/>
    <rect id="Rectangle_83" data-name="Rectangle 83" width="14.09" height="2.2" transform="translate(401.067 262.264)" opacity="0.1"/>
    <path id="Tracé_152" data-name="Tracé 152" d="M661.83,394.35h-7.576l-.234-2.3,7.59.2Z" transform="translate(-216.675 -129.886)" opacity="0.1"/>
    <path id="Tracé_153" data-name="Tracé 153" d="M533.567,385.77h100.74a4.347,4.347,0,0,1,4.347,4.347v.95H529.22v-.95a4.347,4.347,0,0,1,4.347-4.347Z" transform="translate(-175.329 -127.806)" fill="#dda2a6"/>
    <path id="Tracé_154" data-name="Tracé 154" d="M531.034,252.481c-1.518-.8-18.055-13.294-18.055-13.294l-26.688-16.925s-.14-.4-.395-1.09c7.322-8.312,5.724-20.375-1.725-28.854-9.027-10.285-49.818-32.425-62.109-13.488-1.719,2.675-1.779,5.711-2.227,8.653a35.939,35.939,0,0,1-9.743,19.125c-4.092,4.327-9.462,8.312-11.816,13.207a.792.792,0,0,0-.067-.187,12.278,12.278,0,0,0-1.224,3.344c-1.17,5.971,2.842,11.7,4.975,17.507a31.763,31.763,0,0,1,1.551,6.072c.053-.415.1-.823.147-1.237a38.826,38.826,0,0,1,.528,8.934C389.376,257.262,389.37,282.6,389.37,282.6s-1.826,10.071-1.518,13.7.3,11.482.3,13.374-1.826,13.7-2.006,15.113a.342.342,0,0,1,0,.06c-.267,1.551-3.043,9.027,3.665,10.7.468.12.963.221,1.478.314.288,6.052.809,18.724.348,21.546,0,0,2.441,17.025,4.467,21.352a49.112,49.112,0,0,0,4.48,7.235,7.97,7.97,0,0,1-1.03,2.936c-1.036,1.491-.5,2.715,1.23,3.243-.06.515-.127,1.1-.2,1.752-.742,6.567-1.852,19.62.033,26.233,2.588,9.068,2.742,12.09,2.742,12.09a8.817,8.817,0,0,0,1.07,4.226c1.07,1.511,3.043,15.567,3.043,17.834s5.176,22.662,3.651,27.5-.3,11.635-.3,11.635-.916,11.936-2.006,14.5-1.525,43.967.147,54.693,2.742,19.64,2.742,19.64-1.063,9.823-.154,11.181,2.588,9.522,1.371,9.97-1.826,3.778-1.826,3.778a33.69,33.69,0,0,0,2.08,2.829,11.376,11.376,0,0,1-1.371-.582c.481.669,1.2,1.618,2.093,2.675l-.836,10.866A1.819,1.819,0,0,0,414.4,624.9a15.293,15.293,0,0,0,15.126-4.253c7.61-7.7,10.2-6.647,11.569-11.328.147-.5.274-1,.381-1.464a4.935,4.935,0,0,0-7-5.5c.488-3.3.869-7.055.5-9.175-.762-4.38-.609-15.862-.609-15.862l-1.063-55s1.973-10.88,4.26-15.106,2.006-19.038,2.006-19.038l2.588-48.655,2.434-23.719s2.434-8.158,5.477.909c0,0-1.672,18.276-.909,22.662s1.826,25.685,1.063,30.366-4.106,30.372-2.006,36.866,4.44,14.364,3.972,16.938-2.006,58.318-2.006,58.318,4.113,10.7,1.07,14.2-.154,17.386-.154,17.386.368.261,1,.622l-.087,1.157-.956,12.5a1.832,1.832,0,0,0,1.337,1.913,15.287,15.287,0,0,0,15.126-4.253c7.61-7.71,10.2-6.647,11.569-11.335.147-.5.274-.99.388-1.464a4.946,4.946,0,0,0-7.971-4.882l-.181.154a6.293,6.293,0,0,1-.6.448,2.886,2.886,0,0,1-.3.194c.762-3.451,1.872-9.362,1.337-12.13-.762-4.079.756-16.463.756-16.463s4.413-14.812,4.567-20.73l1.217-47.137s-.147-19.192.461-23.873,5.477-45.177,10.345-57.268c3.738-9.255,5.41-32.873,4.42-44.85-.053-.588-.107-1.157-.174-1.685,5.971-4.407,6.567-11.736,6.567-11.736s-5.483-10.472-10.759-14.905-6.413-12.057-6.226-15.3a7.945,7.945,0,0,0-1.826-5.437s-2.434-7.857-4.059-8.66a1.27,1.27,0,0,1-.354-.267c-1.1-1.184-.254-4.567-.254-4.567v-.107c.194-.782,1.337-5.851,1-7.148-.408-1.4.2-8.058.2-8.058s3.858-11.482,3.25-20.549,7.917-8.258,7.917-8.258l26.327-.274h3a21.087,21.087,0,0,0,2.882-2.982c5.015-.6,15.159-2.488,16.3-8.024C538.851,260.746,532.559,253.29,531.034,252.481ZM409.063,336.309l.181-4.607c.622.535,1.036.876,1.036.876a7.209,7.209,0,0,1,.047,3.691,3.939,3.939,0,0,1-2.28,2.554,2.761,2.761,0,0,0-.368.194l-.254-2.6ZM504.554,255.4c-1.117-.5-4.875-.4-6.807-.4s-5.069-1.612-5.069-1.612c-.669-1.3-4.367-2.08-7.657-2.521-2.5-6.165-6.018-12.177-6.493-18.6a4.941,4.941,0,0,0-.033-.7l.381.669S494.2,242,495.927,244.931c1.337,2.233,7.777,7.222,10.759,9.455a3.069,3.069,0,0,1-1.638,1.1.9.9,0,0,1-.495-.087Z" transform="translate(-194.884 -78.867)" fill="url(#linear-gradient)"/>
    <path id="Tracé_155" data-name="Tracé 155" d="M511.9,828.273c-.114.468-.234.956-.381,1.451-1.337,4.681-3.9,3.6-11.368,11.241a14.966,14.966,0,0,1-14.892,4.226,1.806,1.806,0,0,1-1.337-1.9l.943-12.4.448-5.965s11.93,3.344,18-.9a7.192,7.192,0,0,0,.588-.448,1.83,1.83,0,0,0,.134-.134,4.875,4.875,0,0,1,7.864,4.828Z" transform="translate(-227.536 -294.51)" fill="#67647e"/>
    <path id="Tracé_156" data-name="Tracé 156" d="M455.9,821.273c-.114.468-.234.956-.381,1.451-1.337,4.681-3.9,3.6-11.368,11.241a14.966,14.966,0,0,1-14.892,4.226,1.806,1.806,0,0,1-1.337-1.9l.943-12.4.448-5.965s11.93,3.344,18-.9a7.189,7.189,0,0,0,.588-.448,1.831,1.831,0,0,0,.134-.134,4.875,4.875,0,0,1,7.864,4.828Z" transform="translate(-208.984 -292.191)" fill="#67647e"/>
    <path id="Tracé_157" data-name="Tracé 157" d="M442.955,826.881l.481,6.446c-6.847,6.841-15-3.344-17.386-6.687C432.329,829.877,442.955,826.881,442.955,826.881Z" transform="translate(-208.367 -295.939)" opacity="0.1"/>
    <path id="Tracé_158" data-name="Tracé 158" d="M502.83,828.916l.9-.6c-6.252,9.509-15.541,5.122-18.436,3.417l.448-5.965s11.93,3.344,18-.9C503.265,827.2,502.83,828.916,502.83,828.916Z" transform="translate(-227.993 -295.353)" opacity="0.1"/>
    <path id="Tracé_159" data-name="Tracé 159" d="M496.3,535.984c-4.8,11.99-9.6,52.159-10.2,56.84s-.448,23.685-.448,23.685l-1.2,46.736c-.154,5.851-4.5,20.542-4.5,20.542s-1.5,12.291-.749,16.336-1.946,14.711-1.946,14.711l.9-.6c-7.5,11.368-19.339,2.849-19.339,2.849s-2.849-13.789.154-17.239-1.05-14.09-1.05-14.09,1.5-55.315,1.946-57.863-1.8-10.345-3.9-16.791,1.2-31.93,1.953-36.578-.3-25.785-1.05-30.132.9-22.488.9-22.488c-3-8.994-5.4-.9-5.4-.9l-2.4,23.532-2.548,48.274s.3,14.711-1.946,18.891-4.2,14.986-4.2,14.986l1.05,54.573s-.147,11.368.6,15.734-1.652,15.594-1.652,15.594c-8.392,19.774-21.873-1.665-21.873-1.665s.6-3.3,1.8-3.745-.448-8.546-1.337-9.9.147-11.094.147-11.094-1.05-8.84-2.675-19.486-1.2-51.717-.147-54.265,1.946-14.391,1.946-14.391-1.2-6.747.3-11.548-3.6-25.03-3.6-27.283-1.946-16.189-3-17.687a8.844,8.844,0,0,1-1.05-4.2s-.147-3-2.675-11.99c-1.859-6.567-.762-19.513-.033-26.033.261-2.414.488-3.952.488-3.952s85.975-13.942,89.405-10.793c.8.742,1.337,3.29,1.652,6.921C501.647,503.358,499.962,526.829,496.3,535.984Z" transform="translate(-202.416 -182.455)" fill="#444053"/>
    <path id="Tracé_160" data-name="Tracé 160" d="M491.34,662.371c.4,0,9.9.8,13.374.1S491.34,662.371,491.34,662.371Z" transform="translate(-229.998 -241.438)" opacity="0.1"/>
    <path id="Tracé_161" data-name="Tracé 161" d="M492.39,670.859s13.113,2.3,13.782,1.1S492.39,670.859,492.39,670.859Z" transform="translate(-230.346 -244.329)" opacity="0.1"/>
    <path id="Tracé_162" data-name="Tracé 162" d="M432.46,667.27s6.794.3,10.492,2.006S432.46,667.27,432.46,667.27Z" transform="translate(-210.491 -243.14)" opacity="0.1"/>
    <path id="Tracé_163" data-name="Tracé 163" d="M395.54,415.8s1.1,20.884.5,24.581c0,0,2.394,16.891,4.393,21.185a61.231,61.231,0,0,0,6.3,9.7l5.9-41.46-1.4-14.2Z" transform="translate(-198.259 -159.762)" fill="#efb7b9"/>
    <circle id="Ellipse_45" data-name="Ellipse 45" cx="23.084" cy="23.084" r="23.084" transform="translate(236.159 114.728)" fill="#efb7b9"/>
    <path id="Tracé_164" data-name="Tracé 164" d="M462.792,254.833s-7.2,14.1-14.391,20.69,43.171,14.09,44.368,14.09-8.994-29.978-7.2-33.6S462.792,254.833,462.792,254.833Z" transform="translate(-215.539 -106.235)" fill="#efb7b9"/>
    <path id="Tracé_165" data-name="Tracé 165" d="M501.079,491.482a15,15,0,0,1-3.7,2.073c-9.188,3.6-19.185,8.593-25.979,6.6s-21.184,0-21.184,0-28.988-2.4-34.773-1a11.333,11.333,0,0,1-6.018.154c.261-2.414.488-3.952.488-3.952s86.075-13.942,89.506-10.793C500.23,485.3,500.751,487.851,501.079,491.482Z" transform="translate(-202.858 -182.455)" opacity="0.1"/>
    <path id="Tracé_166" data-name="Tracé 166" d="M501.932,410.458s-.8,10-10,13.595-19.185,8.593-25.979,6.6-21.184,0-21.184,0-28.988-2.4-34.773-1-8.8-.395-7-3,1.6-11.194,1.6-14.792-2.006-18.189-.207-20.79,3.4-12.592,6.995-14.2a3.918,3.918,0,0,0,2.247-2.534,7.249,7.249,0,0,0-.047-3.658s-.609-.5-1.444-1.244c-2.12-1.892-5.7-5.4-4.554-6.553,1.6-1.6,0-12,0-12s-3.8-7.991-2.394-10.987S393,321.113,393,321.113s0-27.176,16.39-28.38c0,0,11.6.4,12.993-4.795s10.592-8.2,10.592-8.2l20.991,4.6s18.583,4.012,21.987,1.6,6.018,3.2,6.018,3.2,11.589.6,12.786,3-3.792,25.778-3.792,25.778-8.4-.8-7.8,8.2-3.237,20.389-3.237,20.389-.6,6.593-.2,7.991c.375,1.291-.789,6.319-.976,7.095v.1s-.836,3.344.247,4.534a1.337,1.337,0,0,0,.348.267c1.6.8,4.012,8.593,4.012,8.593a7.91,7.91,0,0,1,1.8,5.4c-.194,3.2,1,10.793,6.2,15.193S501.932,410.458,501.932,410.458Z" transform="translate(-197.418 -114.752)" fill="#a36468"/>
    <path id="Tracé_167" data-name="Tracé 167" d="M410.81,383.879v.849l-.361,9.362s-12.3,1-18.991-.669-3.878-9.094-3.611-10.632a.248.248,0,0,0,0-.06c.194-1.4,2.006-13.093,2.006-14.992s0-9.7-.3-13.294,1.471-13.621,1.471-13.621l1.3-1.591,14.083,5.4Z" transform="translate(-195.441 -134.461)" fill="#a36468"/>
    <path id="Tracé_168" data-name="Tracé 168" d="M410.76,406.339,410.4,415.7s-12.3,1-18.991-.669-3.878-9.094-3.611-10.632Z" transform="translate(-195.425 -156.052)" opacity="0.1"/>
    <path id="Tracé_169" data-name="Tracé 169" d="M423.121,414.9a7.249,7.249,0,0,0-.047-3.658s-.609-.5-1.444-1.244c10.586-1.478,52.507-7.229,66.623-7.857v.1s-.836,3.344.247,4.534Z" transform="translate(-206.903 -155.303)" opacity="0.1"/>
    <path id="Tracé_170" data-name="Tracé 170" d="M520.1,432s2.6,14.711-7.095,19.887C513,451.914,518.507,444.618,520.1,432Z" transform="translate(-237.177 -165.196)" opacity="0.1"/>
    <path id="Tracé_171" data-name="Tracé 171" d="M428.72,461.339s23.4-4.012,27.985-.9S428.72,461.339,428.72,461.339Z" transform="translate(-209.252 -174.226)" opacity="0.1"/>
    <path id="Tracé_172" data-name="Tracé 172" d="M510.577,326.22s-3.6,14.792-.9,18.189S510.577,326.22,510.577,326.22Z" transform="translate(-235.74 -130.151)" opacity="0.1"/>
    <path id="Tracé_173" data-name="Tracé 173" d="M410.131,308.14s3.3,5.5,1.3,11.194S410.131,308.14,410.131,308.14Z" transform="translate(-203.054 -124.161)" opacity="0.1"/>
    <path id="Tracé_174" data-name="Tracé 174" d="M400,380.18s4.2,2.494,2.8,6.393S400,380.18,400,380.18Z" transform="translate(-199.737 -148.028)" opacity="0.1"/>
    <path id="Tracé_175" data-name="Tracé 175" d="M399.43,363.14s3.892,2.1,4.393,5.2S399.43,363.14,399.43,363.14Z" transform="translate(-199.548 -142.383)" opacity="0.1"/>
    <path id="Tracé_176" data-name="Tracé 176" d="M485.81,540.247s24.488,2.5,29.383-3.3C515.193,536.983,493.106,541.35,485.81,540.247Z" transform="translate(-228.166 -199.965)" opacity="0.1"/>
    <path id="Tracé_177" data-name="Tracé 177" d="M422.59,539.79s26.287,6.2,31.482,1.3C454.073,541.087,431.484,542.786,422.59,539.79Z" transform="translate(-207.221 -200.906)" opacity="0.1"/>
    <path id="Tracé_178" data-name="Tracé 178" d="M488.65,554s10.993,0,16.089.3S488.65,554,488.65,554Z" transform="translate(-229.107 -205.614)" opacity="0.1"/>
    <path id="Tracé_179" data-name="Tracé 179" d="M425.28,561s5.4,6.1,11.495,5S425.28,561,425.28,561Z" transform="translate(-208.112 -207.933)" opacity="0.1"/>
    <path id="Tracé_180" data-name="Tracé 180" d="M428.939,184.01c-1.692,2.628-1.752,5.671-2.193,8.586a35.78,35.78,0,0,1-9.589,18.978c-4.795,5.1-11.368,9.716-12.612,15.942-1.177,5.911,2.815,11.6,4.908,17.386,5.517,15.173-2.187,31.088-4.433,46.749-.622,4.327.127,9.857,5.457,11.294,1.665.455,3.571.395,5.069,1.117,2.006.963,2.621,2.962,2.989,4.761a72.766,72.766,0,0,1,1.378,19.58c-.241,3.678-.508,7.911,2.969,10.438a17.558,17.558,0,0,0,5.758,2.3c5.477,1.478,12.558,2.675,16.249-.8,1.551-1.451,2.133-3.5,4.066-4.647,2.9-1.719,7-.555,10.646-.374a19.332,19.332,0,0,0,17.306-9.3c2.949-5.289,2.675-11.368,1.6-17.072s-2.982-11.368-3.116-17.159a9.964,9.964,0,0,1,1.284-5.824c2.227-3.444,7.409-5.009,10.953-7.717,6.64-5.082,6.62-13.407,4.206-20.375s-6.747-13.648-7.282-20.85a7.937,7.937,0,0,1,.983-5.035c.949-1.464,2.608-2.561,4.012-3.771,9.69-8.185,8.546-21.626.535-30.827C481.218,187.193,441.042,165.226,428.939,184.01Z" transform="translate(-201.172 -80.603)" fill="#e3787d"/>
    <g id="Groupe_33" data-name="Groupe 33" transform="translate(202.859 127.039)" opacity="0.1">
      <path id="Tracé_181" data-name="Tracé 181" d="M410.534,274.895c.756-6.078.615-12.1-1.531-18.022-1.057-2.9-2.588-5.784-3.7-8.693a12.545,12.545,0,0,0-1.2,3.344c-1.177,5.911,2.815,11.6,4.908,17.386A31.615,31.615,0,0,1,410.534,274.895Z" transform="translate(-403.882 -231.335)"/>
      <path id="Tracé_182" data-name="Tracé 182" d="M419.7,371.526a73.035,73.035,0,0,0-1.371-19.58c-.375-1.8-.99-3.792-3-4.754-1.5-.722-3.4-.669-5.069-1.117a6.908,6.908,0,0,1-4.681-3.865c-.308,1.525-.575,3.043-.8,4.567-.622,4.327.127,9.857,5.457,11.294,1.665.448,3.571.388,5.069,1.11,2.006.963,2.621,2.962,3,4.761a74.11,74.11,0,0,1,1.284,9.041C419.641,372.489,419.667,372.007,419.7,371.526Z" transform="translate(-404.121 -262.487)"/>
      <path id="Tracé_183" data-name="Tracé 183" d="M484.117,380.3a19.31,19.31,0,0,1-17.313,9.3c-3.644-.187-7.75-1.337-10.639.374-1.933,1.143-2.521,3.2-4.072,4.647-3.691,3.444-10.773,2.274-16.249.8a17.765,17.765,0,0,1-5.758-2.3,7.222,7.222,0,0,1-2.842-4.614c.04,2.053,0,4.113-.127,6.165-.241,3.678-.508,7.911,2.969,10.445a17.756,17.756,0,0,0,5.758,2.294c5.477,1.478,12.558,2.675,16.249-.8,1.551-1.451,2.14-3.5,4.072-4.681,2.889-1.719,6.995-.555,10.639-.374a19.351,19.351,0,0,0,17.313-9.3c2.835-5.109,2.708-10.886,1.719-16.4A17.969,17.969,0,0,1,484.117,380.3Z" transform="translate(-411.538 -273.632)"/>
      <path id="Tracé_184" data-name="Tracé 184" d="M528.849,231.877c-1.431,1.2-3.089,2.307-4.012,3.771a7.938,7.938,0,0,0-.983,5.035,26.786,26.786,0,0,0,1.378,6.42,26.7,26.7,0,0,1,3.644-3.237c6.553-5.53,8.145-13.468,6.018-20.877a19.085,19.085,0,0,1-6.045,8.887Z" transform="translate(-443.604 -222.99)"/>
      <path id="Tracé_185" data-name="Tracé 185" d="M522.384,307.813c-3.537,2.708-8.727,4.28-10.947,7.723a9.931,9.931,0,0,0-1.291,5.818,40.172,40.172,0,0,0,.856,6.955,6.437,6.437,0,0,1,.435-.782c2.22-3.444,7.409-5.009,10.947-7.717,6.065-4.641,6.573-11.983,4.781-18.53a13.883,13.883,0,0,1-4.781,6.533Z" transform="translate(-439.085 -248.927)"/>
    </g>
    <path id="Tracé_186" data-name="Tracé 186" d="M559.35,293.159s17.293-.9,18.79-8.192-4.681-14.711-6.192-15.494-17.814-13.193-17.814-13.193L527.854,239.5s-12.592-36.11-15.38-22.288,8.1,32.178,8.1,32.178,15.086,9.7,16.784,12.592,12.1,10.492,12.1,10.492Z" transform="translate(-236.848 -92.991)" fill="#efb7b9"/>
    <path id="Tracé_187" data-name="Tracé 187" d="M576.259,309.214c-4.092,10.4-9.4,14.5-9.4,14.5h-2.949l-25.926.267L535,315.814l4.2-17.694,2.595.107s3.1,1.6,5,1.6,5.6-.1,6.687.395a.823.823,0,0,0,.488.074c.983-.1,2.006-1.571,2.006-1.571S580.358,298.822,576.259,309.214Z" transform="translate(-244.462 -120.842)" fill="#a36468"/>
    <path id="Tracé_188" data-name="Tracé 188" d="M585.638,309.5c-4.092,10.4-9.4,14.5-9.4,14.5h-2.949c1.538-4.119,4.781-12.572,6.018-14.524,1.21-1.846-9.649-6.44-16-8.921.983-.1,2.006-1.571,2.006-1.571S589.737,299.107,585.638,309.5Z" transform="translate(-253.841 -121.126)" opacity="0.1"/>
    <ellipse id="Ellipse_46" data-name="Ellipse 46" cx="29.543" cy="5.778" rx="29.543" ry="5.778" transform="translate(31.188 504.535)" fill="#6c63ff" opacity="0.1"/>
    <ellipse id="Ellipse_47" data-name="Ellipse 47" cx="21.519" cy="4.206" rx="21.519" ry="4.206" transform="translate(531.685 467.997)" fill="#6c63ff" opacity="0.1"/>
    <ellipse id="Ellipse_48" data-name="Ellipse 48" cx="21.519" cy="4.206" rx="21.519" ry="4.206" transform="translate(624.962 485.042)" fill="#6c63ff" opacity="0.1"/>
    <ellipse id="Ellipse_49" data-name="Ellipse 49" cx="21.519" cy="4.206" rx="21.519" ry="4.206" transform="translate(480.529 520.149)" fill="#6c63ff" opacity="0.1"/>
    <path id="Tracé_189" data-name="Tracé 189" d="M226.5,556.31s4.841,6.333-2.233,15.882-12.9,17.614-10.532,23.572c0,0,10.666-17.741,19.352-17.988S236.056,566.983,226.5,556.31Z" transform="translate(-137.85 -206.379)" fill="#6c63ff"/>
    <path id="Tracé_190" data-name="Tracé 190" d="M226.633,556.31a7.884,7.884,0,0,1,.99,2.006c8.472,9.957,12.986,19.245,4.841,19.479-7.583.214-16.684,13.782-18.864,17.206a6.317,6.317,0,0,0,.261.782s10.666-17.741,19.352-17.988S236.189,566.983,226.633,556.31Z" transform="translate(-137.983 -206.379)" opacity="0.1"/>
    <path id="Tracé_191" data-name="Tracé 191" d="M245.987,567.66c0,2.227-.247,4.012-.555,4.012s-.562-1.805-.562-4.012.314-1.177.622-1.177S245.987,565.406,245.987,567.66Z" transform="translate(-148.343 -209.664)" fill="#ffd037"/>
    <path id="Tracé_192" data-name="Tracé 192" d="M249.27,571.59c-1.953,1.063-3.658,1.712-3.8,1.438s1.337-1.337,3.27-2.421,1.184-.288,1.337,0S251.223,570.52,249.27,571.59Z" transform="translate(-148.537 -210.933)" fill="#ffd037"/>
    <path id="Tracé_193" data-name="Tracé 193" d="M189.487,556.31s-4.841,6.333,2.233,15.882,12.9,17.614,10.552,23.572c0,0-10.7-17.741-19.392-17.988S179.931,566.983,189.487,556.31Z" transform="translate(-126.388 -206.379)" fill="#6c63ff"/>
    <path id="Tracé_194" data-name="Tracé 194" d="M189.485,556.31a7.883,7.883,0,0,0-.99,2.006c-8.472,9.957-12.986,19.245-4.841,19.479,7.583.214,16.718,13.782,18.864,17.206a7.628,7.628,0,0,1-.254.782s-10.7-17.741-19.392-17.988S179.929,566.983,189.485,556.31Z" transform="translate(-126.386 -206.379)" opacity="0.1"/>
    <path id="Tracé_195" data-name="Tracé 195" d="M181.43,567.66c0,2.227.247,4.012.555,4.012s.562-1.805.562-4.012-.314-1.177-.622-1.177S181.43,565.406,181.43,567.66Z" transform="translate(-127.325 -209.664)" fill="#ffd037"/>
    <path id="Tracé_196" data-name="Tracé 196" d="M176.219,571.59c1.959,1.063,3.658,1.712,3.812,1.438s-1.337-1.337-3.277-2.421-1.184-.288-1.337,0S174.266,570.52,176.219,571.59Z" transform="translate(-125.204 -210.933)" fill="#ffd037"/>
    <ellipse id="Ellipse_50" data-name="Ellipse 50" cx="50.587" cy="7.764" rx="50.587" ry="7.764" transform="translate(25.284 422.258)" fill="#6c63ff" opacity="0.1"/>
    <path id="Tracé_197" data-name="Tracé 197" d="M227.133,601.092l-.241,2.006-.341,2.788-.14,1.164-.341,2.8-.147,1.164-.341,2.789-3.865,31.723c-.348,2.835-4.975,5.042-10.565,5.042H191.077c-5.59,0-10.211-2.207-10.559-5.042l-3.872-31.73L176.305,611l-.14-1.164-.348-2.8-.14-1.164-.341-2.788-.241-2.006c-.194-1.6,2.307-2.956,5.47-2.956H221.7C224.826,598.137,227.334,599.487,227.133,601.092Z" transform="translate(-125.223 -220.234)" fill="#65617d"/>
    <path id="Tracé_198" data-name="Tracé 198" d="M126.474,572.5l-.334,2.8H75.224l-.334-2.8Z" transform="translate(-24.811 -189.669)" fill="#9d9cb5"/>
    <path id="Tracé_199" data-name="Tracé 199" d="M126.231,578.42l-.334,2.789H75.951l-.341-2.789Z" transform="translate(-25.049 -191.63)" fill="#9d9cb5"/>
    <path id="Tracé_200" data-name="Tracé 200" d="M125.988,584.33l-.341,2.788H76.671l-.341-2.788Z" transform="translate(-25.288 -193.588)" fill="#9d9cb5"/>
    <circle id="Ellipse_51" data-name="Ellipse 51" cx="21.064" cy="21.064" r="21.064" transform="translate(99.296 62.202)" fill="#6c63ff" opacity="0.1"/>
    <circle id="Ellipse_52" data-name="Ellipse 52" cx="13.04" cy="13.04" r="13.04" transform="translate(63.186 20.073)" fill="#6c63ff" opacity="0.1"/>
    <circle id="Ellipse_53" data-name="Ellipse 53" cx="8.024" cy="8.024" r="8.024" transform="translate(0 54.177)" fill="#6c63ff" opacity="0.1"/>
  </g>
</svg>
